<?xml version="1.0" standalone="no"?><!DOCTYPE svg PUBLIC "-//W3C//DTD SVG 1.1//EN" "http://www.w3.org/Graphics/SVG/1.1/DTD/svg11.dtd"><svg t="1679300529639" class="icon" viewBox="0 0 1024 1024" version="1.1" xmlns="http://www.w3.org/2000/svg" p-id="1963" xmlns:xlink="http://www.w3.org/1999/xlink" width="200" height="200"><path d="M8.778 512c0 277.923 225.299 503.222 503.222 503.222s503.222-225.299 503.222-503.222c0-277.923-225.299-503.222-503.222-503.222-277.811 0.274-502.948 225.411-503.222 503.196zM38.55 512c0-261.48 211.97-473.45 473.45-473.45s473.45 211.97 473.45 473.45c0 261.48-211.97 473.45-473.45 473.45-261.369-0.274-473.174-212.082-473.449-473.424z" fill="#003E8D" p-id="1964"></path><path d="M205.564 512c0 169.239 137.196 306.436 306.436 306.436s306.436-137.196 306.436-306.436c0-169.239-137.196-306.436-306.436-306.436-169.185 0.137-306.298 137.251-306.436 306.422zM229.77 512c0.001-155.47 126.034-281.503 281.505-281.503s281.505 126.034 281.505 281.505c0 155.215-125.62 281.089-280.74 281.503-155.503-0.137-281.511-126.061-281.785-281.478zM139.244 537.172l-1.694-8.714c0.411 0.020 0.895 0.031 1.38 0.031 4.881 0 9.489-1.174 13.553-3.257 2.337-1.537 3.972-4.314 3.972-7.473 0-0.24-0.009-0.475-0.026-0.71-0.131-2.314-1.101-4.411-2.61-5.983-1.517-1.845-3.94-3.25-6.686-3.631-0.712-0.018-2.772-0.146-4.862-0.146-2.090 0-4.15 0.128-6.171 0.377l-64.869-0.023v-9.682h64.627c0.654-0.024 1.423-0.041 2.194-0.041 5.767 0 11.346 0.81 16.628 2.322 4.376 1.371 8.28 4.549 10.668 8.709 0.954 1.192 2.226 4.913 2.226 8.929 0 0.144-0.002 0.289-0.005 0.434 0.023 0.317 0.040 0.711 0.040 1.108 0 5.609-2.765 10.573-7.006 13.602-5.031 2.77-10.964 4.378-17.274 4.378-1.437 0-2.854-0.083-4.247-0.246zM167.080 483.679l-94.158-9.924v-9.682l94.158 9.924zM169.015 461.654l-92.706-19.365 1.936-9.441 81.813 16.945 7.261-35.096 10.892 2.179zM181.844 408.644l-90.042-29.529 2.904-9.197 90.042 29.288zM188.138 386.86l-85.201-41.392 4.357-8.957 83.507-1.936-66.806-32.435 4.114-8.231 85.201 41.392-4.357 8.957-83.749 1.936 66.806 32.435zM194.189 206.29l6.293-7.261 40.906 36.307c11.292 9.559 19.929 21.918 24.871 36.016-6.878-14.906-5.246-9.797-5.246-4.306 0 0.339-0.006 0.679-0.018 1.016-0.533 6.649-3.497 12.567-7.994 16.904-3.623 4.581-9.798 8.263-16.832 9.359 1.318-0.215-0.66 0.038-2.699 0.038-3.811 0-7.414-0.88-10.62-2.448-13.234-6.264-24.236-15.714-32.238-27.381l-28.132-22.662 6.293-7.261 40.906 36.067c8.405 7.974 18.878 13.849 30.528 16.745-13.588-4.984-11.019-4.335-8.301-4.335 1.128 0 2.23-0.113 3.295-0.325 8.523-2.461 14.732-10.285 14.732-19.558 0-0.606-0.025-1.208-0.078-1.801-4.069-9.921-11.358-17.909-20.555-22.773zM280.116 253.734l-57.124-75.52 7.988-6.052 75.278 36.067-44.78-59.059 7.261-5.567 57.124 75.278-7.988 6.052-75.278-36.307 44.78 59.303zM338.45 212.585l-46.474-82.78 8.471-4.84 47.201 83.023zM377.177 193.219l-61.965-76.972 9.682-3.874 43.327 56.64q5.325 6.778 9.441 12.827c0-5.325-1.694-10.409-2.179-15.976l-7.745-71.163 9.197-3.631 9.197 98.514zM417.601 178.214l-18.879-92.706 51.557-10.409 2.179 10.892-42.117 8.471 5.81 28.321 39.453-7.988 2.179 10.892-39.453 7.988 6.293 31.709 44.054-9.197 2.179 10.892zM480.291 166.353v-94.642h32.192c0.607-0.041 1.32-0.061 2.036-0.061 4.588 0 8.964 0.912 12.953 2.564 4.123 2.274 7.365 6.212 8.757 10.94 1.235 2.063 2.396 6.912 2.396 12.033 0 0.064 0 0.127-0.001 0.191 0.014 0.332 0.023 0.733 0.023 1.139 0 5.898-1.819 11.372-4.927 15.891-4.001 5.019-10.009 8.437-16.828 9.026 5.32 2.088 8.471 5.283 10.612 9.119 2.963 3.114 7.576 12.596 9.687 22.985l7.725 10.573h-12.102l-9.682-19.606c-2.904-5.567-5.083-9.924-7.020-13.071-2.409-4.291-5.833-7.756-9.958-10.148 3.294 2.324 1.026 1.269-1.469 0.904l-14.231 0.529v41.392zM489.489 113.344h20.815c0.263 0.009 0.574 0.015 0.884 0.015 3.442 0 6.716-0.718 9.68-2.012 2.751-1.405 4.935-3.946 5.896-7.026 0.737-1.099 1.455-3.908 1.455-6.886 0-0.109-0.001-0.215-0.003-0.324 0.003-0.093 0.005-0.223 0.005-0.354 0-4.026-1.468-7.71-3.895-10.545-2.694-2.973-6.597-4.847-10.939-4.847-0.318 0-0.634 0.009-0.946 0.028l-24.163-0.002zM551.938 136.581h9.197c-0.366 1.819-0.575 3.91-0.575 6.052s0.209 4.232 0.606 6.255c1.337 3.983 4.084 7.404 7.663 9.601 1.564 1.533 5.933 3.406 10.719 3.798-0.708 0.075 1.003 0.286 2.764 0.286 1.761 0 3.471-0.211 5.11-0.609 3.313-0.906 6.181-3.016 8.069-5.836 1.053-1.197 2.359-4.306 2.615-7.71 0.181 0.276 0.389-1.097 0.389-2.52 0-1.423-0.208-2.798-0.595-4.095-1.361-3.363-3.895-6.123-7.096-7.765-9.887-6.718-23.69-12.387-38.547-14.995 19.522 4.942 12.124-1.404 6.643-9.194 5.497 6.612 3.084 2.074 2.35-3.004 0.167 1.050-0.089-1.036-0.089-3.183 0-2.148 0.257-4.233 0.74-6.231 1.045-5.657 3.726-10.742 7.531-14.751 1.112-1.942 5.716-4.982 11.035-6.020-0.315 0.071 2.063-0.243 4.513-0.243 2.45 0 4.827 0.314 7.093 0.905 5.89 1.054 11.18 3.897 15.283 7.94 2.067 1.569 4.995 6.515 5.863 12.141 0.011-0.164 0.32 2.468 0.32 5.17 0 2.703-0.308 5.333-0.889 7.859l-9.153-0.236c0.189-1.089 0.297-2.342 0.297-3.623 0-3.908-1.006-7.581-2.775-10.774-2.555-4.295-7.029-7.365-12.254-8.020-0.46-0.26-2.064-0.497-3.722-0.497-3.188 0-6.173 0.869-8.733 2.382-3.191 2.227-5.417 5.809-5.831 9.925-0.401 0.523-0.693 2.021-0.693 3.585 0 1.565 0.291 3.063 0.823 4.441 4.732 5.328 11.134 9.193 18.395 10.734 6.491 4.023 16.39 12.011 24.086 21.809-10.407-10.884-7.412-5.904-6.389-0.238-0.25-1.031 0.056 1.347 0.056 3.796 0 2.449-0.307 4.826-0.881 7.097-1.132 6.031-3.97 11.462-7.989 15.78-1.271 2.055-6.349 5.431-12.213 6.681 0.883-0.241-1.616 0.125-4.204 0.125-2.585 0-5.085-0.367-7.451-1.046-6.759-1.077-12.835-4.203-17.588-8.709-1.274-1.941-3.655-6.991-4.264-12.571-0.379-0.157-0.882-3.707-0.882-7.373 0-2.518 0.239-4.981 0.691-7.367zM613.903 181.118l29.047-90.042 9.197 2.904-29.529 90.042zM651.904 195.398l34.613-75.761-21.785-10.166 4.6-10.166 52.525 24.204-4.6 10.166-21.785-10.166-34.856 76.004zM704.429 224.445l22.995-32.918 7.503-61.722 9.682 6.778-4.6 31.709c0 5.81-1.936 11.619-3.147 17.428l16.702-7.503 27.593-14.766 9.197 6.535-55.429 27.109-22.995 32.918zM759.133 229.77l8.956-9.924 7.503 6.778-8.957 9.924zM831.748 306.5l3.147 9.682c-6.138 3.266-13.422 5.184-21.154 5.184-1.074 0-2.137-0.039-3.193-0.111-7.7-0.983-14.356-5.355-18.411-11.578-3.293-3.948-5.673-10.227-5.673-17.062 0-0.395 0.007-0.788 0.023-1.18 0.885-8.312 4.314-15.747 9.491-21.605 7.569-10.599 19.778-20.217 33.973-25.956-7.658 2.365 4.186-2.498 17.072-3.887-7.075 0.916-3.494 0.359 0.217 0.359 3.711 0 7.292 0.558 10.665 1.591 7.093 2.346 13.040 7.327 16.646 13.793 1.465 1.155 3.501 6.474 3.501 12.27 0 1.372-0.115 2.717-0.333 4.028-1.62 9.001-6.192 16.871-12.67 22.649l-9.096-8.267c4.523-4.813 7.541-11.088 8.275-18.044-0.431 2.588-0.372 1.792-0.372 0.983 0-3.898-1.336-7.484-3.575-10.326-3.166-4.556-8.153-7.71-13.898-8.406-0.070-0.035-1.694-0.176-3.351-0.176-4.080 0-7.957 0.855-11.469 2.396-10.992 4.526-20.4 11.426-27.803 20.089 1.001-3.298-7.622 7.278-13.006 19.594 6.273-11.984 4.094-6.501 3.908-0.514 0.030-0.667 0.019-0.282 0.019 0.105 0 4.306 1.372 8.295 3.703 11.546 3.098 4.285 8.030 7.164 13.648 7.491 0.246 0.028 1.251 0.072 2.266 0.072 6.429 0 12.449-1.753 17.609-4.807zM814.32 341.354l85.929-39.697 4.114 8.714-35.34 16.217 15.733 34.371 35.34-16.217 4.114 8.714-85.929 39.697-4.114-8.714 40.423-18.638-15.976-34.371-40.423 18.638zM841.43 406.466l90.526-27.593 2.904 9.197-90.526 27.593zM848.693 427.766l93.432-15.007 1.453 9.682-67.29 49.62 72.615-11.86 1.453 9.197-93.432 15.007-1.453-9.682 68.258-49.62-72.615 11.86z" fill="#003E8D" p-id="1965"></path><path d="M858.858 488.764l93.916 31.224v10.409l-96.82 26.626v-10.892l28.803-7.503v-30.499l-28.321-8.957zM897.101 511.032v24.204l26.383-6.778 19.848-4.6c-14.749-2.888-27.864-7.494-40.026-13.702zM340.145 334.093v216.151c0 111.585 76.972 202.596 171.613 202.596s171.613-90.768 171.613-202.596v-216.151zM659.167 358.298v191.462c0 98.030-65.838 177.907-146.925 177.907s-146.925-79.877-146.925-177.907v-190.978zM683.372 549.76z" fill="#003E8D" p-id="1966"></path><path d="M496.993 345.227h24.69v297.722h-24.69z" fill="#003E8D" p-id="1967"></path><path d="M440.111 527.976c-51.71-1.714-96.498-29.807-121.511-71.194-13.069 16.732-40.179 7.051-40.179 7.051 15.976 35.823 190.252 125.867 190.252 125.867l124.898-148.135c-71.889 0-70.678 87.623-153.459 86.411zM604.463 532.815c-40.664-25.899 39.453-81.572 103.839-83.991 5.083-2.421 1.21-11.135-17.185-11.135-7.504-0.673-16.233-1.057-25.049-1.057-20.861 0-41.221 2.148-60.871 6.233l-121.517 149.009c13.307 2.283 28.634 3.586 44.266 3.586 77.613 0 147.713-32.155 197.709-83.87l0.074-30.576s-80.602 77.941-121.267 52.041zM450.519 315.455h-10.892v-40.423c-5.372 4.991-12.236 8.443-19.852 9.619l5.813-11.314c5.419-2.029 9.959-5.349 13.397-9.596-0.389 1.347 2.334-2.826 3.363-7.629l7.93 2.702zM468.673 302.385h10.409c0.051 1.906 0.804 3.627 2.009 4.922 0.949 0.835 2.304 1.392 3.792 1.392 0.174 0 0.343-0.008 0.513-0.022 2.334-0.056 4.386-1.304 5.558-3.165 1.825-3.484 2.902-7.634 2.902-12.037 0-0.271-0.004-0.541-0.011-0.811-2.369 3-5.985 4.881-10.038 4.881-0.045 0-0.088 0-0.133-0.001 0.004 0 0 0-0.004 0-4.508 0-8.563-1.959-11.354-5.069-3.029-3.347-4.875-7.79-4.875-12.663 0-0.32 0.008-0.637 0.023-0.951-0.019-0.262-0.028-0.622-0.028-0.982 0-5.032 1.943-9.611 5.122-13.025 3.164-3.278 7.611-5.322 12.538-5.322 0.184 0 0.369 0.003 0.549 0.008 0.046-0.002 0.131-0.002 0.215-0.002 5.597 0 10.578 2.639 13.767 6.739 3.6 5.397 5.727 11.981 5.727 19.065 0 1.057-0.048 2.102-0.139 3.134 0.089 0.761 0.136 1.798 0.136 2.847 0 7.282-2.218 14.046-6.016 19.654-3.32 4.172-8.532 6.904-14.384 6.904-0.192 0-0.383-0.003-0.573-0.008-0.146 0.008-0.35 0.011-0.557 0.011-3.84 0-7.359-1.377-10.091-3.661-3.076-3.056-5.011-7.303-5.061-12.004zM492.877 278.181c0.015-0.233 0.023-0.504 0.023-0.776 0-2.805-0.917-5.395-2.469-7.487-1.252-1.716-3.288-2.846-5.588-2.87 0.007 0-0.036-0.001-0.077-0.001-2.009 0-3.798 0.941-4.951 2.408-1.252 1.907-1.99 4.227-1.99 6.72 0 0.367 0.015 0.728 0.048 1.086-0.022 0.211-0.035 0.515-0.035 0.82 0 2.662 0.827 5.13 2.236 7.163 1.217 1.575 3.148 2.61 5.322 2.621 0.051 0.003 0.134 0.004 0.22 0.004 2.046 0 3.875-0.94 5.072-2.414 1.371-1.81 2.191-4.085 2.191-6.55 0-0.083-0.001-0.168-0.003-0.251zM534.995 315.455v-11.377h-24.204v-9.441l24.204-36.067h9.197v36.067h7.020v9.441h-7.020v11.377zM534.995 294.64v-19.606l-13.071 19.365zM595.991 272.614h-10.409c-0.073-1.921-0.837-3.65-2.045-4.962-0.911-0.784-2.26-1.338-3.741-1.338-0.092 0-0.187 0.002-0.277 0.007-2.41 0.015-4.54 1.257-5.789 3.134-1.848 3.46-2.929 7.555-2.929 11.902 0 0.33 0.006 0.658 0.018 0.984 2.323-3.006 5.902-4.887 9.92-4.887 0.001 0 0.002 0 0.003 0 0.043 0 0.092-0.001 0.143-0.001 4.543 0 8.63 1.957 11.463 5.072 3.022 3.344 4.865 7.783 4.865 12.651 0 0.239-0.004 0.473-0.012 0.71 0.018 0.272 0.027 0.632 0.027 0.991 0 5.032-1.943 9.611-5.122 13.025-3.364 3.371-8.028 5.463-13.184 5.463-5.273 0-10.035-2.19-13.425-5.71-3.565-5.357-5.684-11.933-5.684-19.004 0-0.981 0.042-1.953 0.121-2.913-0.108-0.863-0.165-2.013-0.165-3.177 0-7.147 2.135-13.795 5.804-19.338 3.317-4.165 8.53-6.896 14.382-6.896 0.192 0 0.383 0.003 0.573 0.008 0.146-0.007 0.35-0.011 0.557-0.011 3.84 0 7.359 1.375 10.091 3.661 2.85 2.919 4.679 6.89 4.857 11.287zM571.786 296.818c-0.018 0.254-0.028 0.55-0.028 0.848 0 2.781 0.919 5.349 2.473 7.413 1.287 1.705 3.329 2.827 5.637 2.876-0.057-0.002-0.013-0.001 0.027-0.001 2.009 0 3.798-0.941 4.951-2.408 1.259-1.863 2.004-4.143 2.004-6.595 0-0.409-0.020-0.815-0.061-1.214 0.023-0.209 0.036-0.512 0.036-0.816 0-2.662-0.827-5.13-2.236-7.163-1.225-1.539-3.144-2.544-5.297-2.544-2.154 0-4.074 1.004-5.314 2.572-1.503 1.792-2.417 4.101-2.431 6.623zM202.418 774.14c0 4.6 7.988 3.147 13.554 5.083s4.114 6.293 4.357 9.924 4.357 0 12.102 0c6.187 1.214 13.299 1.909 20.574 1.909 7.275 0 14.388-0.696 21.275-2.022 7.77-4.003-4.091-9.569-9.9-14.895s1.694-8.471 6.052-8.714 28.561 0 30.74-4.114-13.071-8.957-18.154-10.65 4.357-7.020 8.471-10.892-8.471-8.471-15.491-9.682-6.535-2.421-9.682-6.293-10.892 8.714-13.313 11.619-4.6 2.179-10.166-2.177-11.135-7.988-11.135-7.988c-10.892-2.179-5.567 10.65 0 18.638s0 14.039-2.177 18.879-4.84 2.663-12.827-4.114-15.249-5.325-14.039-1.694c0.144 2.109 0.227 4.57 0.227 7.052 0 3.568-0.171 7.095-0.504 10.576zM224.202 842.64c-1.21-3.874 1.694-7.745 6.535-8.231s5.325-2.663-2.904-6.778-7.503-5.567 1.694-9.924 14.766-12.588 3.147-19.606-27.352-3.147-26.141-5.325-1.694-9.441-1.694-9.441-3.147 0-5.567 1.936c-4.165 4.539-10.011 7.477-16.543 7.825-6.208-0.080-8.63 6.939-6.208 10.086s-5.083 13.313 0 20.090 15.733-17.911 19.606-22.026 15.976 0 24.204 1.21 3.874 9.197-5.083 9.682-19.123 0-24.204 4.357 8.957 13.554 11.377 18.396 12.102 5.325 15.976 8.714 8.231 2.904 6.293-0.968zM458.265 923.001c-4.84-8.957-6.293-10.409-9.682-11.377s-4.84 1.694-2.904-5.567 0-19.123 8.957-22.026 16.702-3.388 14.523-7.745c-3.861-6.408-6.305-14.067-6.711-22.261 0.417 0.962-0.793-9.206-6.602-5.090s-10.409 18.638-12.345 22.995-4.357 9.924-10.65 10.892-16.702 0-13.798 6.052 10.65 8.231 5.567 10.65-21.059 12.827-22.269 8.957c0.265-12.613 3.468-24.42 8.948-34.839 2.671-0.499 20.824-4.131 23.487-11.148s5.81-27.109 0-29.047-17.911 3.388-29.047 32.435c-2.475 1.403-5.436 2.229-8.59 2.229-0.468 0-0.935-0.018-1.394-0.055-5.748 0.004-24.144 0.004-21.724 4.603 0 0 1.21 6.293 5.325 7.503s3.631 0 11.86-2.663 11.377-3.147 9.197 0c-20.933 28.381-47.971 51.065-79.27 66.383 48.287-34.432 46.593-35.884 46.593-28.864s2.421 15.007 7.745 10.892 14.523-9.924 13.798-6.052-3.874 22.026 0 25.657 5.325-4.84 6.052-14.766 5.325-12.827 7.261-10.892-4.84 11.86 0 11.377c6.678-2.027 14.38-3.294 22.342-3.502-5.399 0.84-6.126-1.097-3.704 0.84s1.936 24.204 7.988 27.593 7.503-7.988 7.261-12.827 2.421-24.204 5.81-17.185 12.827 22.511 18.638 22.511 2.179-16.459-2.663-25.657zM431.882 841.43c0.014 0.308 0.022 0.667 0.022 1.030 0 5.302-1.833 10.176-4.899 14.022-5.048 4.796-12.794 11.089-12.069 8.427s11.377-24.931 16.945-23.478zM625.764 807.543s3.874-2.663 7.503 6.052c18.748 55.855 45.902 104.185 80.43 146.231-53.32-88.381-43.154-98.79-44.364-100.726s-5.083-5.325 4.357-7.988 24.204 0 19.123 2.904c-25.876 15.126-46.871 36.011-61.694 60.991 27.309-34.521 27.303-34.134 27.303-33.747 0 8.26 3.337 15.74 8.735 21.168 5.825 1.635 12.514 2.574 19.426 2.574 2.706 0 5.379-0.144 8.010-0.426 9.112 0.027 13.227-6.991 28.72 0.027s0 13.798-3.389 18.396c-3.531 3.694-8.5 5.99-14.003 5.99-2.357 0-4.616-0.42-6.706-1.192-7.128-3.103-29.638-19.321-29.153-15.932s11.377 30.499-1.694 33.404-25.657-7.503-32.192-5.083-15.249 0-11.377-5.325 18.154-16.945 13.313-32.435c0-1.694-4.357 0-8.231 2.904s-7.503 3.874-9.682-1.936 0-7.745 7.745-12.102 9.441-7.988 7.261-13.071-26.626-64.87-9.441-70.678zM776.803 698.621c-9.924 2.179-5.325 8.471-6.535 12.588-2.27 5.3-6.626 9.336-12.007 11.132-0.297 0.167-1.771 2.238-1.771 4.654 0 1.466 0.542 2.805 1.439 3.828 0.705 1.047 1.127 2.348 1.127 3.746 0 1.397-0.424 2.697-1.149 3.776-1.437 1.67-7.973-2.445-12.087-5.591s-8.471 1.453-8.471 1.453-1.21 2.421 2.421 5.325 4.357 9.197 10.166 13.798 15.733 9.924 20.090 4.114 8.231-3.147 8.471 1.21 5.083 22.753 7.020 30.014 22.995 5.81 25.416 3.147-7.988-8.957-8.714-20.333 2.177-30.74 8.471-31.466 13.313 24.204 15.976 32.678 8.714 8.231 10.409 9.682 0 5.083-11.135 18.154-11.86 16.459-4.357 20.574 7.503 0 8.471-2.421c2.563-9.648 7.613-17.894 14.424-24.284 2.519-5.005 5.906-11.056 8.327-6.942s-1.694 10.65-9.682 19.848-8.231 10.892-6.052 13.798c1.304 0.202 2.808 0.318 4.34 0.318 14.587 0 26.726-10.491 29.276-24.339 0.027-9.381-14.010-22.21-16.432-24.388s10.166-12.588 12.102-17.428-4.114-9.197-9.924-7.261-8.957 14.039-11.377 17.911c-1.431 2.77-4.274 4.629-7.55 4.629-0.758 0-1.492-0.101-2.191-0.285-3.814 0.013-5.023-5.070-6.96-16.446-1.765-9.081-7.422-16.568-15.129-20.777-3.266-3.187-14.159 3.832-15.37 13.756s-2.179 12.588-4.6 10.65-1.694-13.798 0-20.333 6.293-12.102 7.261-16.459-2.177-6.778 2.179-10.65 11.377-8.471 5.81-12.827-21.785-0.726-31.709 1.453zM776.803 734.444c0 6.293 4.6 12.588 1.453 12.588-5.552-1.201-10.164-4.538-13.023-9.087-1.257-2.047-1.984-6.162 0.92-8.1s4.114 3.389 6.052 1.694 4.357-3.147 4.357 3.389z" fill="#003E8D" p-id="1968"></path></svg>