<svg version="1.1" id="Layer_1" xmlns="http://www.w3.org/2000/svg" xmlns:xlink="http://www.w3.org/1999/xlink" x="0px" y="0px"
	 width="100%" viewBox="0 0 2560 1950" enable-background="new 0 0 2560 1950" xml:space="preserve">
<path fill="#E12827" opacity="1.000000" stroke="none" 
	d="
M1512.000000,1952.000000 
	C1008.055664,1952.000000 505.111359,1952.000000 2.167027,1952.000000 
	C2.111353,1951.722412 2.006869,1951.444702 2.006866,1951.167114 
	C2.000003,1301.572388 2.000000,651.977600 2.000000,2.191431 
	C855.111206,2.191431 1708.222534,2.191431 2561.666992,2.191431 
	C2561.666992,651.999878 2561.666992,1301.999878 2561.666992,1952.000000 
	C2212.254639,1952.000000 1862.627319,1952.000000 1512.000000,1952.000000 
M899.469788,304.782318 
	C903.920898,302.829468 906.530090,299.710449 905.378784,294.606812 
	C904.393250,290.238129 900.712036,287.913971 894.527832,287.686646 
	C891.202942,287.564453 887.862854,287.744812 884.533203,287.878326 
	C825.234131,290.255646 765.934204,291.554291 706.625732,288.159180 
	C695.646545,287.530640 684.668701,286.837952 673.680725,286.428772 
	C669.732117,286.281738 665.649231,286.407654 661.819641,287.265808 
	C657.356018,288.266052 653.965088,291.039703 653.732483,296.170990 
	C653.497070,301.365448 656.779175,304.151550 661.132080,305.622681 
	C664.577209,306.786987 668.264526,307.229279 671.837952,308.020752 
	C680.604248,309.962341 689.564880,311.295319 698.091919,313.995422 
	C719.072632,320.639008 726.873413,341.416321 716.077820,360.473572 
	C697.939758,392.492645 676.463379,422.115387 651.936584,449.515900 
	C607.455994,499.208191 561.320923,547.319824 512.892517,593.179749 
	C496.933228,608.292542 480.144775,622.537048 463.557434,636.974060 
	C459.569275,640.445190 455.088837,643.502258 450.439362,646.019165 
	C445.779205,648.541931 442.826935,647.073853 441.565521,641.876770 
	C440.715149,638.373169 440.566284,634.626892 440.594971,630.993042 
	C441.152618,560.332764 441.724213,489.672455 442.457428,419.013855 
	C442.574921,407.692261 443.096893,396.344910 444.092377,385.067780 
	C447.702820,344.168823 470.771545,316.927429 508.666473,308.669312 
	C514.827759,307.326660 521.187500,306.904480 527.447449,306.000549 
	C530.069824,305.621796 532.742676,305.336365 535.265625,304.583160 
	C539.434387,303.338715 542.413513,300.802216 542.017456,295.968903 
	C541.649353,291.477783 539.035767,288.424866 534.722900,287.553528 
	C531.176880,286.837097 527.448792,286.835999 523.801331,286.834534 
	C436.472443,286.799652 349.143524,286.806580 261.814636,286.811798 
	C259.148865,286.811951 256.462585,286.674713 253.821365,286.946625 
	C247.049728,287.643860 243.606491,291.145874 243.698837,296.946808 
	C243.784500,302.328796 246.075180,303.995422 254.155426,304.468353 
	C267.844879,305.269562 281.333374,307.064545 294.213013,312.133179 
	C320.832672,322.608856 342.085480,346.187469 341.871887,380.513611 
	C341.708069,406.841095 342.385010,433.173401 342.644409,459.503967 
	C344.089233,606.158813 344.935425,752.812744 341.847687,899.459473 
	C341.523926,914.836365 340.009644,930.069092 335.643250,944.869507 
	C325.723663,978.493103 302.698822,997.149963 267.694519,1000.235107 
	C263.053223,1000.644226 258.376282,1001.078796 253.833862,1002.052185 
	C249.690964,1002.939941 246.248474,1005.411194 246.300766,1010.122498 
	C246.353149,1014.840820 249.817841,1017.287048 254.031647,1017.924194 
	C258.279541,1018.566528 262.658600,1018.563477 266.974945,1018.498108 
	C344.621887,1017.322144 422.261780,1014.921265 499.926880,1017.416992 
	C515.583618,1017.920166 531.247009,1018.403870 546.907898,1018.423828 
	C549.801697,1018.427551 553.804626,1016.939941 555.340576,1014.761841 
	C557.787415,1011.292053 556.591431,1006.579529 553.446228,1003.848938 
	C550.924377,1001.659424 547.237854,1000.217529 543.877441,999.711792 
	C536.977661,998.673523 529.926880,998.691101 522.978699,997.913086 
	C481.679230,993.288330 454.723541,970.122925 446.020233,929.552734 
	C442.345032,912.420898 440.675629,894.581970 440.461121,877.035522 
	C439.760468,819.716553 440.142700,762.384216 440.135559,705.057068 
	C440.135162,701.727051 440.172211,698.374634 440.538116,695.070923 
	C442.170898,680.328491 451.041718,675.291748 464.311340,682.233521 
	C469.813782,685.112000 474.915863,689.257935 479.277313,693.727844 
	C497.893219,712.806519 516.643799,731.789795 534.478210,751.588806 
	C610.559448,836.051025 683.550842,923.173340 756.126221,1010.640076 
	C761.087646,1016.619568 766.108521,1018.921204 773.822144,1018.884521 
	C835.817566,1018.589600 897.815063,1018.720459 959.811890,1018.716003 
	C962.477966,1018.715820 965.145386,1018.710999 967.809753,1018.627869 
	C972.308167,1018.487671 975.550659,1016.780762 976.033875,1011.784424 
	C976.479431,1007.177246 974.092163,1002.970276 969.629639,1001.762024 
	C966.127625,1000.813904 962.399475,1000.697815 958.770325,1000.223389 
	C950.191162,999.101929 941.541260,998.366638 933.043579,996.803284 
	C898.101562,990.375488 869.109131,972.531372 843.824158,948.467712 
	C829.597900,934.928589 816.254395,920.416809 803.048645,905.857605 
	C715.925598,809.805847 632.379395,710.655151 548.623413,611.688110 
	C547.365906,610.202271 546.309204,608.546448 544.963196,606.701965 
	C546.865845,604.510071 548.507935,602.446228 550.325012,600.550110 
	C610.061951,538.214783 670.672791,476.751831 733.421936,417.428894 
	C764.214905,388.317352 795.977905,360.374451 831.695557,337.312103 
	C852.463318,323.902649 873.945129,311.908997 899.469788,304.782318 
M1261.000000,1627.761719 
	C934.488953,1627.761719 607.977905,1627.761719 281.131409,1627.761719 
	C281.131409,1642.574097 281.131409,1656.328857 281.131409,1669.971802 
	C296.212616,1672.035645 2267.834229,1671.265015 2275.079590,1669.220337 
	C2275.079590,1655.781494 2275.079590,1642.276855 2275.079590,1627.761719 
	C1937.360229,1627.761719 1600.180054,1627.761719 1261.000000,1627.761719 
M1167.492310,301.537506 
	C1189.637573,306.034058 1198.361938,315.335785 1198.226074,336.465027 
	C1197.681519,421.092041 1196.962280,505.719269 1195.776001,590.338989 
	C1195.643921,599.766785 1193.000488,609.445312 1189.947021,618.475098 
	C1185.965576,630.249573 1177.374634,637.903198 1164.642090,640.002747 
	C1160.499146,640.685974 1155.974487,641.703735 1156.359253,646.772034 
	C1156.796387,652.531311 1162.080444,651.246033 1165.830078,651.256226 
	C1197.818848,651.343079 1229.808105,651.311707 1261.797119,651.291382 
	C1263.788086,651.290100 1266.196167,651.741882 1267.667114,650.809998 
	C1269.617188,649.574585 1271.698120,647.332092 1272.059204,645.235840 
	C1272.293457,643.875610 1269.864746,641.294189 1268.083740,640.527771 
	C1265.407349,639.375977 1262.262573,639.269653 1259.300171,638.832520 
	C1239.994385,635.983948 1228.935669,624.424683 1225.700317,605.676147 
	C1223.839966,594.895142 1222.776978,583.865295 1222.584595,572.925842 
	C1221.295776,499.630890 1220.328979,426.330261 1219.317505,353.030670 
	C1219.289307,350.989655 1219.931885,348.939453 1220.429199,345.854095 
	C1223.172119,348.737823 1225.025635,350.592407 1226.775635,352.539948 
	C1292.698975,425.900726 1358.613403,499.269714 1424.528320,572.638245 
	C1443.678833,593.954468 1462.783813,615.312195 1482.038574,636.533875 
	C1484.152954,638.864258 1486.955078,641.715820 1489.728027,642.072510 
	C1496.127686,642.895691 1502.705566,642.333862 1509.784058,642.333862 
	C1509.784058,637.239441 1509.777710,633.620422 1509.784912,630.001404 
	C1509.935181,554.694092 1509.991211,479.386353 1510.299438,404.079681 
	C1510.386597,382.761902 1511.057739,361.441711 1511.806030,340.134735 
	C1511.990845,334.874298 1513.016479,329.507080 1514.545166,324.458344 
	C1517.785645,313.757050 1525.162231,306.956848 1536.028687,304.196045 
	C1539.565674,303.297455 1543.247070,302.982117 1546.833984,302.259338 
	C1549.086304,301.805481 1551.695435,301.626801 1553.389771,300.334869 
	C1554.967773,299.131714 1556.523926,296.490875 1556.292114,294.718079 
	C1556.058594,292.933746 1553.885498,290.620758 1552.067749,290.009125 
	C1549.331299,289.088440 1546.164795,289.288879 1543.180786,289.285339 
	C1510.858521,289.247101 1478.536255,289.258484 1446.213989,289.270569 
	C1443.883301,289.271423 1441.544800,289.284363 1439.223755,289.467804 
	C1435.708984,289.745544 1432.340820,290.691467 1432.013184,294.890594 
	C1431.640015,299.675690 1435.158691,300.872162 1439.029785,301.655396 
	C1445.214111,302.906586 1451.535034,303.819061 1457.491577,305.797577 
	C1477.821655,312.550385 1487.194702,325.244049 1487.627319,346.696014 
	C1488.977539,413.657715 1490.170044,480.622620 1491.372070,547.587219 
	C1491.408325,549.605530 1490.873169,551.633972 1490.419312,555.050964 
	C1486.870972,551.212219 1484.374023,548.590454 1481.963257,545.891541 
	C1407.603271,462.642151 1333.216064,379.416809 1258.989014,296.048950 
	C1254.645142,291.170227 1250.266724,289.017700 1243.625244,289.101837 
	C1218.642334,289.418457 1193.651245,289.164246 1168.664429,288.969147 
	C1164.661987,288.937897 1161.081543,289.372772 1159.950195,293.717316 
	C1158.709106,298.483246 1162.028564,300.195312 1167.492310,301.537506 
M1927.427612,393.381592 
	C1936.319336,395.147125 1937.638916,394.330872 1937.680298,385.837708 
	C1937.793945,362.512054 1937.720825,339.185486 1937.715332,315.859283 
	C1937.715088,314.527313 1937.757568,313.184570 1937.611694,311.865479 
	C1937.251221,308.606567 1935.784180,305.493042 1932.298706,305.848602 
	C1929.789917,306.104492 1927.084595,308.060883 1925.233398,309.993073 
	C1923.746704,311.545013 1923.561035,314.273315 1922.537354,316.351227 
	C1918.032715,325.494873 1911.289795,328.325500 1901.995850,324.332520 
	C1896.524048,321.981689 1891.367798,318.815948 1886.270752,315.688843 
	C1871.161499,306.419006 1855.532227,298.202118 1838.271729,293.830231 
	C1784.495972,280.209473 1731.765625,284.395905 1680.670898,305.384827 
	C1634.275757,324.443237 1601.189941,357.056061 1585.033813,405.312164 
	C1573.904541,438.553375 1572.854004,472.714661 1577.966064,507.045929 
	C1586.780396,566.242493 1618.077026,608.994202 1672.947632,633.758972 
	C1699.372681,645.685364 1727.356445,651.232971 1756.193848,652.908569 
	C1814.583496,656.301208 1867.728638,642.195923 1914.390625,605.953430 
	C1918.526245,602.741455 1920.162109,599.469604 1920.076660,594.261963 
	C1919.775635,575.939209 1919.859375,557.607544 1920.026245,539.281311 
	C1920.074585,533.980347 1920.659424,528.653625 1921.402588,523.395935 
	C1923.074219,511.569214 1930.222778,504.245758 1941.337036,500.823425 
	C1946.072266,499.365326 1951.095337,498.831177 1955.997314,497.930420 
	C1958.279785,497.511047 1961.075684,497.902679 1962.758545,496.697601 
	C1964.918457,495.150696 1967.558105,492.300079 1967.452148,490.135406 
	C1967.352539,488.100067 1964.209595,485.789490 1961.912964,484.436035 
	C1960.399170,483.543915 1958.013184,484.066986 1956.017822,484.066437 
	C1909.032227,484.053467 1862.046509,484.037445 1815.060913,484.071045 
	C1806.407837,484.077209 1802.884155,486.215515 1802.910889,491.090240 
	C1802.935303,495.530670 1806.096680,497.347076 1813.982910,498.598633 
	C1823.812622,500.158630 1833.839600,501.341370 1843.276611,504.298553 
	C1856.284668,508.374847 1863.634521,518.018127 1863.854614,531.929688 
	C1864.160034,551.251953 1864.085693,570.584106 1863.883545,589.908936 
	C1863.783936,599.440979 1860.021973,607.766724 1851.960327,612.954651 
	C1842.501953,619.041199 1832.962036,625.858765 1822.455566,629.299683 
	C1789.202148,640.190247 1755.471802,640.295593 1722.556396,627.715088 
	C1687.100098,614.163391 1664.535645,587.387512 1650.236694,553.116394 
	C1636.326416,519.776855 1632.648315,484.844238 1636.387329,449.208405 
	C1639.838257,416.317291 1649.563843,385.343384 1668.560669,357.836212 
	C1685.818359,332.847443 1708.777954,315.599609 1738.172729,307.111969 
	C1756.708496,301.759857 1775.620728,300.807678 1794.622314,302.322418 
	C1851.334473,306.843445 1894.246216,333.107880 1921.318359,383.853607 
	C1922.878052,386.777313 1924.670654,389.576874 1927.427612,393.381592 
M1903.000000,1586.029175 
	C2026.874756,1586.029175 2150.749512,1586.029175 2275.190674,1586.029175 
	C2275.376465,1582.325928 2275.625000,1579.739136 2275.603760,1577.154541 
	C2275.579834,1574.243164 2275.312744,1571.333740 2275.125732,1567.962158 
	C1610.165771,1567.962158 945.787720,1567.962158 280.943481,1567.962158 
	C280.943481,1574.033447 280.943481,1579.501953 280.943481,1586.029175 
	C821.330078,1586.029175 1361.165039,1586.029175 1903.000000,1586.029175 
M1601.574097,1257.647583 
	C1601.064575,1255.033325 1600.567993,1252.416382 1600.043945,1249.805054 
	C1590.153320,1200.511475 1562.043213,1167.283813 1513.815918,1151.557617 
	C1491.102173,1144.151123 1467.673096,1140.804199 1444.011230,1140.506714 
	C1392.372803,1139.857422 1340.721802,1140.185669 1289.075928,1140.180542 
	C1281.860962,1140.179810 1278.221069,1142.390015 1278.518677,1146.496582 
	C1278.970947,1152.735962 1284.049927,1151.819824 1288.234253,1152.472412 
	C1306.437256,1155.311035 1314.972656,1165.132568 1315.479004,1183.587036 
	C1315.506348,1184.585938 1315.492188,1185.586182 1315.492188,1186.585815 
	C1315.490845,1258.890625 1315.530762,1331.195435 1315.413574,1403.500000 
	C1315.403320,1409.796265 1314.869751,1416.189575 1313.680664,1422.364624 
	C1311.611450,1433.110840 1305.279175,1440.358032 1294.200317,1442.582275 
	C1289.982788,1443.429199 1285.491577,1443.186035 1281.433472,1444.438477 
	C1279.452148,1445.050049 1276.952637,1447.937744 1276.929688,1449.822388 
	C1276.906982,1451.689819 1279.391846,1454.098022 1281.365479,1455.312134 
	C1282.843262,1456.221069 1285.255249,1455.669189 1287.251221,1455.669067 
	C1335.565430,1455.666992 1383.882202,1455.956787 1432.192749,1455.527710 
	C1462.820435,1455.255737 1492.451294,1449.297852 1520.233643,1435.943848 
	C1563.595337,1415.101562 1590.699463,1381.382324 1600.387207,1333.954834 
	C1605.451904,1309.159668 1604.959961,1284.312256 1601.574097,1257.647583 
M1000.267151,1145.992065 
	C997.932007,1141.683105 993.891479,1141.928955 989.826660,1141.937500 
	C967.168335,1141.985229 944.509766,1141.930420 921.851440,1141.977905 
	C914.405151,1141.993530 911.657715,1143.459717 912.000977,1147.316162 
	C912.535156,1153.318848 917.501404,1151.834595 921.209106,1152.341919 
	C935.658691,1154.319092 942.988159,1161.929321 944.437622,1176.562500 
	C944.667175,1178.879883 944.819153,1181.217651 944.804504,1183.544678 
	C944.347717,1256.183350 944.041016,1328.824097 943.166809,1401.457886 
	C943.057129,1410.574463 940.817993,1419.941284 937.977600,1428.675781 
	C934.747314,1438.609131 926.690796,1444.049316 916.291748,1445.581055 
	C912.154053,1446.190430 906.369019,1445.281250 907.218689,1451.735962 
	C907.946655,1457.265747 913.402710,1455.619385 917.135742,1455.633667 
	C943.459167,1455.733765 969.783142,1455.688965 996.106934,1455.684570 
	C997.772400,1455.684326 999.441833,1455.697998 1001.102478,1455.593994 
	C1004.119446,1455.404785 1006.808228,1453.952393 1006.021729,1450.818726 
	C1005.532654,1448.869995 1002.988647,1447.058350 1000.945190,1445.998047 
	C999.308655,1445.149048 997.010498,1445.674927 995.051086,1445.332397 
	C980.950623,1442.867676 971.285278,1434.991089 967.467102,1421.115234 
	C965.633179,1414.450562 964.465271,1407.389526 964.376892,1400.490356 
	C963.467712,1329.522705 962.841064,1258.551636 962.139282,1187.581421 
	C962.117981,1185.430542 962.136536,1183.279053 962.136536,1181.127930 
	C966.274231,1183.178833 968.714355,1185.730713 971.000366,1188.413818 
	C1044.469116,1274.643677 1118.053955,1360.775391 1191.159180,1447.312500 
	C1197.837402,1455.217773 1204.432251,1456.888550 1213.872925,1454.939697 
	C1214.061646,1452.043091 1214.358276,1449.448730 1214.381104,1446.852051 
	C1214.847046,1393.873413 1215.324707,1340.894897 1215.707153,1287.915649 
	C1215.945312,1254.928589 1215.858765,1221.938477 1216.245361,1188.953491 
	C1216.493896,1167.728271 1225.635376,1152.581665 1251.047729,1151.384155 
	C1254.712891,1151.211304 1260.329102,1152.204346 1259.779541,1146.088379 
	C1259.253052,1140.232544 1253.780151,1142.047241 1250.161377,1142.032227 
	C1219.839478,1141.906494 1189.516968,1141.957275 1159.194580,1141.972900 
	C1157.201416,1141.973877 1154.988525,1141.619141 1153.281494,1142.360107 
	C1151.787354,1143.008667 1149.974609,1144.941284 1149.932983,1146.354858 
	C1149.890747,1147.788696 1151.587402,1150.161255 1152.978394,1150.569458 
	C1156.117676,1151.491089 1159.539429,1151.444214 1162.844482,1151.809204 
	C1184.260498,1154.173828 1195.839600,1166.634277 1196.118774,1188.124390 
	C1196.902588,1248.429932 1197.554565,1308.737305 1198.228638,1369.044312 
	C1198.256348,1371.526001 1197.984863,1374.011230 1197.735229,1378.705322 
	C1131.288330,1300.387451 1066.280762,1223.765991 1000.267151,1145.992065 
M2008.048218,1195.063599 
	C2007.464233,1264.047363 2007.019775,1333.032837 2006.117554,1402.012451 
	C2006.006470,1410.507935 2004.354614,1419.254761 2001.805786,1427.379761 
	C1998.451294,1438.073242 1990.292725,1444.235596 1978.958008,1445.622559 
	C1975.018799,1446.104492 1969.874634,1445.649658 1970.361816,1451.354004 
	C1970.854126,1457.118286 1976.221802,1455.620850 1979.943604,1455.634521 
	C2006.604370,1455.732788 2033.265625,1455.688721 2059.926758,1455.681763 
	C2061.592041,1455.681274 2063.514404,1456.125122 2064.860107,1455.450439 
	C2066.702148,1454.526733 2069.660645,1452.219727 2069.393799,1451.405396 
	C2068.710693,1449.320068 2066.623535,1447.604492 2064.850342,1446.017822 
	C2064.263916,1445.493164 2062.913330,1445.872803 2061.925781,1445.739014 
	C2042.894165,1443.161133 2033.382080,1434.642822 2029.251465,1415.993530 
	C2028.252319,1411.483154 2027.852783,1406.762451 2027.801270,1402.131470 
	C2027.004028,1330.484619 2026.302246,1258.836914 2025.628662,1187.188721 
	C2025.609253,1185.118164 2026.138550,1183.042358 2026.580444,1179.691528 
	C2029.960449,1183.555176 2032.369141,1186.246094 2034.710449,1188.994263 
	C2108.189941,1275.238037 2181.765869,1361.400513 2254.964355,1447.882080 
	C2261.660889,1455.794067 2268.421387,1457.075317 2277.883301,1454.487915 
	C2277.883301,1450.770752 2277.863525,1447.471313 2277.886230,1444.171997 
	C2278.460449,1360.858154 2279.036377,1277.544312 2279.627441,1194.230591 
	C2279.653320,1190.566406 2279.663818,1186.890137 2279.960205,1183.242065 
	C2281.500732,1164.283325 2292.086426,1153.601196 2311.065918,1151.709229 
	C2314.042480,1151.412476 2317.155518,1151.500854 2319.933350,1150.585815 
	C2321.398926,1150.102905 2323.188965,1147.822510 2323.163818,1146.383057 
	C2323.138916,1144.967163 2321.254883,1143.014771 2319.727783,1142.346191 
	C2318.025391,1141.601196 2315.806152,1141.971680 2313.811768,1141.970703 
	C2283.151367,1141.956787 2252.491211,1141.959717 2221.830811,1141.967407 
	C2220.165771,1141.967896 2218.296387,1141.585815 2216.889648,1142.209961 
	C2215.285156,1142.921875 2212.830811,1144.772461 2212.993896,1145.755005 
	C2213.301514,1147.607300 2214.881104,1149.973999 2216.551514,1150.698853 
	C2218.875000,1151.706787 2221.767822,1151.407104 2224.417725,1151.656616 
	C2247.490234,1153.829834 2259.321289,1166.336060 2259.626709,1189.451172 
	C2260.418701,1249.432739 2261.058105,1309.416260 2261.714355,1369.399658 
	C2261.741211,1371.835205 2261.327393,1374.275391 2260.999756,1378.108521 
	C2257.931152,1374.767822 2255.869385,1372.664429 2253.965332,1370.426880 
	C2241.654541,1355.961792 2229.379639,1341.466309 2217.090332,1326.983032 
	C2166.639648,1267.525391 2116.136230,1208.112305 2065.835693,1148.527954 
	C2061.810059,1143.759399 2057.816895,1141.678955 2051.454346,1141.798218 
	C2029.133545,1142.217529 2006.800171,1141.962402 1984.471436,1141.961304 
	C1980.464111,1141.961182 1975.534180,1141.355713 1975.265503,1146.942993 
	C1974.981079,1152.856323 1980.172485,1151.854004 1984.022217,1152.336914 
	C1999.238159,1154.246216 2007.075684,1162.638672 2007.958252,1178.098999 
	C2008.242798,1183.082397 2008.039429,1188.093628 2008.048218,1195.063599 
M2175.275146,653.890503 
	C2179.273682,653.906189 2183.275391,654.038086 2187.270020,653.918518 
	C2211.457275,653.194702 2234.986816,649.414001 2256.890381,638.446594 
	C2283.232910,625.256531 2299.937500,604.405518 2306.299316,575.547729 
	C2307.657715,569.387024 2308.738037,563.108765 2309.253418,556.827820 
	C2312.380859,518.715454 2299.977539,487.180817 2268.211426,464.863586 
	C2257.674072,457.460449 2245.991699,451.384857 2234.180908,446.181946 
	C2222.664551,441.108734 2210.368408,437.757874 2198.319336,433.953033 
	C2179.505615,428.012115 2161.156250,421.148987 2145.330566,408.939209 
	C2132.459473,399.009094 2123.652344,386.419495 2120.941406,370.142731 
	C2116.509521,343.532440 2125.269775,311.282013 2164.917236,304.548523 
	C2204.252930,297.868011 2236.501953,310.476013 2259.421875,344.106567 
	C2262.041992,347.951294 2264.160156,352.134430 2266.657715,356.067657 
	C2269.279785,360.197327 2272.587158,362.351532 2277.847412,358.864960 
	C2277.847412,356.733032 2278.121826,354.418549 2277.804443,352.188354 
	C2275.037109,332.743561 2272.178955,313.311615 2269.299316,293.882996 
	C2269.007568,291.913300 2268.635742,289.893860 2267.889404,288.065399 
	C2266.108398,283.701508 2262.575928,282.907166 2259.354492,286.207306 
	C2257.750977,287.850128 2256.683350,290.006775 2255.306641,291.882050 
	C2251.901123,296.520355 2247.277344,298.991333 2241.549316,298.512604 
	C2236.939941,298.127289 2232.351318,297.229919 2227.817627,296.260284 
	C2216.765625,293.896637 2205.864746,290.350708 2194.698730,289.087738 
	C2165.626221,285.799469 2137.486572,289.629181 2111.457520,303.857452 
	C2090.728760,315.188293 2077.445068,332.450806 2072.717285,355.739532 
	C2069.972656,369.258209 2070.296631,382.912201 2073.064941,396.448639 
	C2078.567383,423.355530 2094.851807,442.280792 2117.623291,456.354279 
	C2134.155273,466.571655 2152.323242,473.105682 2170.312012,480.150909 
	C2187.946533,487.057220 2205.736572,493.889801 2222.521484,502.566956 
	C2249.048096,516.280212 2259.706055,539.439697 2257.652832,568.841919 
	C2255.230469,603.533203 2235.634766,627.128052 2203.026611,633.812378 
	C2158.375488,642.965271 2099.577148,628.270935 2076.170410,563.711487 
	C2074.470215,559.021912 2073.220215,554.170044 2071.550537,549.468323 
	C2070.353760,546.097412 2068.208984,543.589233 2064.142334,544.173645 
	C2060.112793,544.752747 2058.879883,547.783325 2058.374268,551.286865 
	C2058.232422,552.270691 2058.238037,553.281067 2058.237793,554.279297 
	C2058.230469,581.268188 2058.221924,608.257019 2058.242432,635.245911 
	C2058.245361,638.984680 2058.370117,642.993713 2062.777344,644.249878 
	C2066.678223,645.361755 2068.790039,642.393005 2070.733154,639.566772 
	C2077.141846,630.245850 2086.351562,630.091248 2095.767822,632.767700 
	C2103.095459,634.850464 2110.122803,638.056519 2117.181641,641.006958 
	C2135.180664,648.530151 2153.895020,652.823547 2175.275146,653.890503 
M1785.625854,1457.734009 
	C1800.569702,1457.201782 1815.742554,1458.145996 1830.415894,1455.869995 
	C1881.541748,1447.940063 1919.679443,1421.281494 1942.644653,1374.270752 
	C1953.339233,1352.378296 1958.155273,1328.985352 1958.998413,1304.797485 
	C1960.658569,1257.168457 1946.237061,1215.514282 1911.429321,1182.100464 
	C1885.460327,1157.171387 1853.871948,1143.841309 1818.215088,1141.104614 
	C1755.698486,1136.306641 1704.353027,1157.800171 1670.234253,1211.322876 
	C1636.501587,1264.239258 1637.360840,1320.525635 1663.567627,1376.278076 
	C1681.318359,1414.040771 1711.670898,1438.667236 1751.578003,1450.901123 
	C1762.012939,1454.100098 1773.027466,1455.408203 1785.625854,1457.734009 
M886.950989,1349.928467 
	C892.980835,1329.255981 895.223999,1308.111572 893.921814,1286.685303 
	C891.551086,1247.674316 877.592468,1213.465576 849.949463,1185.460449 
	C823.597107,1158.762817 791.215942,1144.227417 754.057373,1141.221191 
	C690.260437,1136.059814 638.208740,1158.137451 604.109375,1213.231567 
	C570.866394,1266.942139 572.486023,1323.535767 600.100159,1379.155273 
	C618.841309,1416.903076 650.122986,1440.739746 690.709351,1452.148560 
	C714.465149,1458.826294 738.640015,1460.164917 762.962585,1456.364868 
	C825.446167,1446.602173 866.987854,1411.982666 886.950989,1349.928467 
M1014.330994,604.280090 
	C1011.265869,628.102783 999.569519,638.913025 975.576172,640.115356 
	C973.252014,640.231812 970.739624,639.921387 968.665161,640.719788 
	C966.746033,641.458435 963.698486,643.905884 963.954346,644.747253 
	C964.609009,646.899658 966.489380,649.486450 968.497864,650.230286 
	C971.494019,651.340027 975.020752,651.261597 978.322266,651.265747 
	C1022.623230,651.321106 1066.924316,651.304077 1111.225342,651.299377 
	C1113.223389,651.299194 1115.475708,651.822510 1117.159058,651.080139 
	C1119.618042,649.995789 1123.148926,648.306152 1123.583740,646.301880 
	C1124.482910,642.158447 1120.558716,640.949829 1117.166748,640.425354 
	C1114.548340,640.020569 1111.846924,640.188843 1109.194824,639.958740 
	C1090.852783,638.367493 1078.138062,627.624634 1074.013428,609.773987 
	C1072.825317,604.631653 1072.147949,599.248474 1072.140625,593.974426 
	C1072.025391,510.368927 1071.989502,426.763123 1072.099121,343.157593 
	C1072.130249,319.337189 1083.666016,306.053009 1107.104248,302.023590 
	C1111.040405,301.346893 1115.005493,300.818207 1118.971313,300.338928 
	C1122.385742,299.926300 1125.317383,298.027405 1124.700073,294.814056 
	C1124.265137,292.549988 1121.388672,290.036560 1119.015137,289.056519 
	C1116.409180,287.980560 1113.130005,288.402466 1110.143921,288.400574 
	C1064.843628,288.371826 1019.543335,288.378265 974.243042,288.387970 
	C971.913513,288.388458 969.554504,288.278778 967.261169,288.596130 
	C963.461853,289.121887 959.705688,290.384186 959.647156,294.985748 
	C959.592468,299.286499 963.223572,299.709106 966.602905,300.591187 
	C975.572510,302.932434 984.783142,304.870331 993.249817,308.486359 
	C1003.782593,312.984833 1011.207764,321.246521 1013.769470,332.750488 
	C1014.913208,337.886627 1014.999329,343.331665 1015.004089,348.637024 
	C1015.075317,428.578674 1015.062439,508.520386 1015.028503,588.462097 
	C1015.026550,593.118591 1014.676453,597.775024 1014.330994,604.280090 
M2061.724854,898.681824 
	C2079.456055,875.312500 2087.725830,849.465576 2082.367920,820.029602 
	C2082.071045,818.399170 2082.062256,816.715942 2081.925537,815.056763 
	C2081.505127,809.949646 2083.947510,806.769592 2088.732178,805.445679 
	C2091.271240,804.743286 2093.923096,804.411377 2096.542236,804.042419 
	C2104.853027,802.871399 2112.108154,806.372192 2119.678467,808.962280 
	C2126.960449,811.453796 2132.546875,808.186646 2134.518311,801.393433 
	C2136.751953,793.697510 2134.042236,787.934021 2126.417725,785.874084 
	C2122.343506,784.773254 2117.844727,784.439392 2113.632080,784.816650 
	C2103.519531,785.722412 2094.298340,789.410461 2085.810791,795.050720 
	C2080.529053,798.560608 2075.019287,800.013855 2069.069580,796.066895 
	C2055.577148,787.116577 2040.326660,785.231567 2024.928955,787.491394 
	C1984.480347,793.427795 1956.920898,816.404236 1942.259399,854.177795 
	C1934.921265,873.083557 1936.246704,892.095459 1947.515869,909.739746 
	C1948.699707,911.593323 1949.258545,913.846069 1950.577148,917.057617 
	C1946.356323,919.102905 1942.705933,921.182556 1938.832275,922.687622 
	C1929.106567,926.466492 1919.992310,931.163635 1912.783569,938.910217 
	C1901.273560,951.279114 1899.473511,966.850098 1908.524658,981.070374 
	C1911.875977,986.335693 1916.577515,990.749329 1920.729858,995.492920 
	C1922.364746,997.360413 1924.181763,999.068359 1925.344849,1000.262817 
	C1908.808228,1007.582092 1892.374023,1014.038940 1876.763916,1022.093140 
	C1868.355835,1026.431396 1860.630249,1032.776123 1853.889648,1039.509644 
	C1842.455322,1050.931396 1840.531616,1065.048584 1845.665283,1080.217773 
	C1849.547485,1091.688965 1856.976196,1100.458984 1866.572510,1107.535767 
	C1875.807495,1114.346313 1886.190430,1118.860840 1897.205444,1121.726685 
	C1923.673950,1128.613037 1950.507568,1129.705566 1977.453979,1125.280762 
	C1996.356812,1122.176636 2014.308105,1116.189575 2029.887085,1104.555054 
	C2050.684326,1089.023560 2055.573975,1064.521240 2041.408691,1042.765869 
	C2036.212769,1034.785767 2029.693726,1027.173462 2022.301025,1021.230774 
	C2010.679077,1011.888367 1997.950684,1003.879517 1985.415405,995.729553 
	C1975.937256,989.567200 1965.655518,984.595276 1956.443726,978.085266 
	C1950.305176,973.747253 1944.366699,968.350037 1940.182861,962.176819 
	C1930.134155,947.350586 1937.451294,932.242798 1955.261230,930.387390 
	C1961.453369,929.742371 1967.894287,930.517456 1974.123901,931.362976 
	C2008.612305,936.043335 2038.143677,927.392090 2061.724854,898.681824 
M317.000793,1455.691406 
	C395.926941,1455.691406 474.853058,1455.691406 554.542908,1455.691406 
	C556.704834,1444.289917 558.743713,1433.561768 560.772766,1422.831665 
	C564.175354,1404.838501 567.542786,1386.838745 570.994751,1368.854980 
	C571.693359,1365.215088 571.509827,1361.433350 567.377686,1361.055176 
	C565.374939,1360.871948 562.280151,1363.696533 561.044128,1365.918335 
	C558.472595,1370.540771 556.982727,1375.748901 554.745361,1380.575928 
	C541.664978,1408.796021 520.788452,1428.317505 490.184967,1435.602295 
	C459.382599,1442.934326 428.021240,1443.337769 396.839111,1438.515625 
	C372.608856,1434.768677 366.515289,1426.645996 366.489441,1402.203369 
	C366.448212,1363.204224 366.477234,1324.205200 366.478027,1285.206055 
	C366.478699,1252.873413 366.364410,1220.540283 366.525940,1188.208496 
	C366.627472,1167.887573 376.379028,1156.864868 396.538544,1153.613037 
	C399.169067,1153.188721 401.989502,1153.336426 404.408783,1152.405518 
	C406.238892,1151.701050 408.800262,1149.707764 408.810028,1148.272827 
	C408.822113,1146.493530 406.897888,1143.893555 405.153809,1143.110718 
	C402.883179,1142.091919 399.967834,1142.338257 397.329620,1142.335693 
	C358.997192,1142.297852 320.664734,1142.308838 282.332275,1142.311279 
	C280.665863,1142.311401 278.998749,1142.314941 277.333160,1142.359619 
	C273.985901,1142.449585 271.106781,1143.774658 270.985962,1147.326660 
	C270.859039,1151.058228 273.748871,1151.983765 277.140961,1152.250610 
	C282.437256,1152.667480 287.808990,1153.062378 292.954132,1154.285278 
	C307.576172,1157.760864 316.469574,1168.083130 318.063049,1183.042725 
	C318.520752,1187.339355 318.568115,1191.694336 318.570038,1196.022705 
	C318.600006,1263.354492 318.605255,1330.686279 318.563995,1398.018066 
	C318.560944,1403.010376 318.619171,1408.073730 317.858521,1412.981445 
	C315.553833,1427.850952 307.306580,1437.900024 292.604614,1442.031128 
	C288.794189,1443.101685 284.778259,1443.591064 280.820770,1443.945435 
	C276.985474,1444.289062 274.218597,1445.698975 274.217926,1449.812500 
	C274.217194,1454.065918 277.444092,1455.250610 281.006653,1455.584229 
	C282.991089,1455.770020 285.002808,1455.685059 287.002258,1455.686768 
	C296.335388,1455.695068 305.668488,1455.691040 317.000793,1455.691406 
M1108.722412,721.723022 
	C1057.202515,748.077026 1020.692261,788.858521 995.698853,840.359741 
	C981.055298,870.534119 974.401062,902.604797 976.019653,936.228577 
	C978.134338,980.160034 1006.005371,1012.944519 1048.928589,1022.260742 
	C1067.442871,1026.279175 1086.149170,1026.298096 1104.528564,1022.826355 
	C1118.822998,1020.126343 1132.711670,1015.167725 1146.674561,1010.867920 
	C1154.294556,1008.521423 1161.582642,1005.083801 1169.221924,1002.816895 
	C1177.807861,1000.268921 1181.601929,1002.832336 1183.462646,1011.680603 
	C1184.074951,1014.592285 1184.002563,1017.642456 1184.348145,1020.617065 
	C1184.829102,1024.757446 1183.771362,1030.176392 1189.624512,1031.054565 
	C1195.443604,1031.927734 1196.340454,1026.598145 1197.739624,1022.649048 
	C1207.518433,995.046692 1217.211304,967.413818 1226.863770,939.766968 
	C1227.732910,937.277588 1228.531738,934.629578 1228.589355,932.037964 
	C1228.628296,930.292664 1227.727783,927.515442 1226.489746,926.991882 
	C1224.669189,926.221985 1221.565063,926.255676 1220.098145,927.375427 
	C1217.554688,929.316956 1215.583496,932.186218 1213.832031,934.957031 
	C1205.216919,948.585632 1195.313721,961.031067 1182.038452,970.462219 
	C1164.313599,983.054321 1145.490845,993.668640 1125.008667,1001.068176 
	C1106.384033,1007.796814 1087.275269,1012.148743 1067.270386,1010.145996 
	C1050.240234,1008.441040 1036.798828,1000.421570 1028.468628,985.415771 
	C1024.652222,978.541199 1021.822815,970.820618 1020.108032,963.135193 
	C1015.539124,942.657715 1016.729309,921.989929 1021.145203,901.661621 
	C1034.885132,838.410461 1069.111816,787.537170 1117.022705,745.185669 
	C1122.232178,740.580688 1128.147583,736.689148 1134.056396,732.977783 
	C1147.154663,724.750610 1161.255249,718.910950 1176.702148,716.858337 
	C1209.844482,712.454407 1244.291626,727.330505 1253.844360,768.641907 
	C1256.212891,778.885254 1256.281494,789.733276 1256.696289,800.331238 
	C1257.000366,808.095947 1257.682983,810.812805 1261.874268,811.670776 
	C1266.046631,812.524841 1268.110840,810.543518 1270.547241,802.893250 
	C1277.716309,780.381897 1284.819214,757.849548 1291.943970,735.324036 
	C1292.445679,733.737976 1293.125854,732.172241 1293.360962,730.544800 
	C1294.056641,725.726868 1290.249146,722.636719 1285.988525,724.880371 
	C1283.106934,726.397827 1280.810303,729.006531 1278.197388,731.057556 
	C1270.747803,736.905273 1267.230347,737.087280 1261.036865,730.357178 
	C1242.099609,709.779114 1217.951172,702.338501 1190.963623,701.982666 
	C1162.440918,701.606628 1135.613159,708.706787 1108.722412,721.723022 
M1457.727417,896.570007 
	C1463.870239,872.202393 1464.165039,847.747253 1457.841553,823.439392 
	C1449.318970,790.678162 1425.781250,778.874451 1395.354004,782.997070 
	C1371.612061,786.214050 1352.168213,797.997681 1335.265137,814.285461 
	C1312.723022,836.007080 1297.459106,862.336426 1288.055542,892.017151 
	C1279.938721,917.636658 1275.303101,943.820923 1280.009644,970.729675 
	C1283.900146,992.972168 1294.022827,1010.946960 1316.744873,1018.998596 
	C1327.676147,1022.872192 1338.981812,1023.134766 1350.271484,1021.070862 
	C1371.349243,1017.217712 1388.575928,1006.126465 1403.569092,991.396545 
	C1430.099854,965.331482 1447.157471,933.709045 1457.727417,896.570007 
M2233.247803,796.138000 
	C2178.183105,820.370850 2139.958496,861.236816 2115.841797,915.747253 
	C2107.543945,934.502380 2103.258545,954.322144 2104.034180,974.980164 
	C2104.928467,998.799500 2119.515137,1016.985168 2142.212891,1020.960083 
	C2150.879150,1022.477722 2160.224121,1022.150085 2168.972900,1020.801636 
	C2201.343750,1015.812317 2225.565918,997.272522 2245.830322,972.673401 
	C2246.670410,971.653503 2247.840576,970.541748 2247.962646,969.379089 
	C2248.149170,967.601624 2248.160889,965.099304 2247.111328,964.111816 
	C2246.195557,963.250427 2243.382812,963.479919 2241.997314,964.265808 
	C2240.048340,965.371460 2238.623535,967.417480 2237.009033,969.094543 
	C2227.718262,978.746643 2217.527588,987.269714 2205.648438,993.576538 
	C2196.146973,998.620850 2186.177490,1002.097412 2175.214844,1002.135376 
	C2155.721680,1002.202820 2143.189697,991.727112 2139.751221,972.642822 
	C2136.596191,955.131165 2142.068604,939.190979 2147.752441,923.074097 
	C2151.760010,911.710022 2158.190430,905.827698 2170.809570,903.536316 
	C2199.250732,898.372131 2227.429688,891.523560 2254.196777,880.049683 
	C2266.484619,874.782410 2278.351562,868.784363 2288.432129,859.828430 
	C2299.378418,850.103271 2305.868652,838.153259 2306.116211,823.211792 
	C2306.444824,803.383057 2296.485596,792.003601 2276.832275,789.772095 
	C2262.290771,788.121033 2248.311035,790.438843 2233.247803,796.138000 
M1767.193604,840.197266 
	C1746.082275,860.967346 1728.817505,884.476746 1716.878784,911.671509 
	C1707.802002,932.346680 1702.392212,953.854004 1703.721436,976.655823 
	C1705.100708,1000.314148 1721.269531,1018.474243 1744.520630,1021.468201 
	C1752.336182,1022.474487 1760.555908,1022.098877 1768.381958,1020.941284 
	C1793.349365,1017.248230 1813.977539,1004.818542 1831.746338,987.394470 
	C1837.200562,982.045959 1842.182373,976.172729 1846.935913,970.186646 
	C1847.958252,968.898926 1847.060791,966.086426 1847.047607,963.976257 
	C1844.979370,964.146912 1842.352661,963.580322 1840.956055,964.637817 
	C1837.804565,967.024353 1835.336304,970.291748 1832.457764,973.063538 
	C1818.833008,986.183350 1803.785889,996.971252 1784.887817,1001.096802 
	C1758.082886,1006.948303 1739.333130,992.466248 1738.192139,965.163696 
	C1738.150391,964.165405 1738.134399,963.163940 1738.159912,962.165283 
	C1738.631104,943.747498 1744.633301,926.909607 1753.299316,910.958008 
	C1754.504150,908.740234 1757.613647,906.951233 1760.198975,906.209167 
	C1766.581665,904.377075 1773.182251,903.313171 1779.677368,901.861084 
	C1805.027222,896.194092 1830.264282,890.130737 1854.261108,879.878113 
	C1866.250122,874.755798 1877.754639,868.814331 1887.675293,860.159241 
	C1897.623413,851.480286 1903.710815,840.739014 1905.443237,827.596741 
	C1908.269165,806.159607 1897.090576,791.992310 1875.654907,789.705383 
	C1860.015259,788.036926 1845.161499,791.062378 1830.765747,796.954651 
	C1806.979614,806.690369 1786.666504,821.580078 1767.193604,840.197266 
M1671.628906,792.434631 
	C1641.706421,858.498352 1611.750122,924.546753 1581.927856,990.655640 
	C1579.619995,995.771729 1577.546875,1001.190308 1576.598877,1006.681335 
	C1574.746094,1017.414734 1582.815674,1025.365234 1593.295166,1022.643982 
	C1600.888306,1020.672180 1608.496460,1017.530273 1615.143433,1013.380859 
	C1632.622070,1002.469788 1646.078491,987.242554 1657.924316,970.554565 
	C1658.873169,969.217834 1659.983643,967.709106 1660.147461,966.186523 
	C1660.296143,964.804260 1659.592896,962.965271 1658.614868,961.961243 
	C1658.008057,961.338379 1655.811646,961.396240 1654.986084,962.019409 
	C1652.623901,963.802490 1650.577148,966.009338 1648.442139,968.086487 
	C1640.103271,976.199280 1631.906372,984.464844 1623.366455,992.359619 
	C1620.958618,994.585510 1617.561157,995.740723 1614.617676,997.387024 
	C1614.019165,996.825684 1613.420532,996.264343 1612.822021,995.703003 
	C1614.204468,991.799011 1615.317139,987.773804 1617.008911,984.008789 
	C1656.276611,896.614563 1695.613281,809.251221 1734.905029,721.867798 
	C1736.538940,718.234131 1738.239746,714.560181 1739.247192,710.730774 
	C1741.009155,704.032898 1738.852539,701.210571 1731.804321,701.693665 
	C1715.204834,702.831238 1698.638428,704.447388 1682.056274,705.842712 
	C1678.649414,706.129272 1675.715698,707.648438 1676.538696,711.209290 
	C1676.959717,713.030701 1679.999023,715.092346 1682.145508,715.494324 
	C1686.684448,716.344238 1691.474121,715.796143 1696.050659,716.519104 
	C1701.935059,717.448608 1703.388916,719.993103 1701.910156,725.630554 
	C1701.409790,727.538147 1700.466309,729.339661 1699.637451,731.149475 
	C1690.494019,751.112427 1681.333618,771.067505 1671.628906,792.434631 
M1549.899170,963.945862 
	C1548.402100,960.626282 1545.972656,960.565002 1543.477661,962.491821 
	C1541.657227,963.897705 1540.301758,965.889465 1538.633423,967.511597 
	C1530.050903,975.856079 1521.556763,984.298767 1512.750366,992.401245 
	C1510.279663,994.674438 1507.503418,997.502747 1501.890137,996.402771 
	C1503.599976,991.761963 1504.888672,987.488037 1506.704102,983.450989 
	C1545.613647,896.928345 1584.586182,810.434021 1623.524292,723.924194 
	C1625.161743,720.286072 1626.872925,716.640381 1628.047607,712.842896 
	C1630.886719,703.665405 1628.961792,701.044189 1619.404785,701.729980 
	C1603.462891,702.874023 1587.550171,704.426575 1571.626465,705.821411 
	C1570.638062,705.908081 1569.337769,705.778748 1568.743774,706.341919 
	C1567.405396,707.610718 1565.541870,709.248535 1565.537476,710.740967 
	C1565.533081,712.219482 1567.306641,714.627075 1568.725708,714.997498 
	C1571.879883,715.820618 1575.296875,715.700195 1578.611938,715.831238 
	C1592.186035,716.367615 1594.610718,719.490540 1588.740601,732.185852 
	C1561.917358,790.197388 1535.520752,848.406677 1509.076050,906.592834 
	C1496.543091,934.169250 1484.144409,961.808167 1471.924927,989.524475 
	C1469.395264,995.262207 1467.064575,1001.341980 1466.165039,1007.487000 
	C1464.628540,1017.983826 1472.278931,1024.835205 1482.651611,1022.800598 
	C1487.171143,1021.914246 1491.801270,1020.563171 1495.836670,1018.405151 
	C1519.014893,1006.010315 1536.694946,987.875610 1549.899170,963.945862 
M1982.642700,371.243408 
	C1981.476440,373.293365 1980.310059,375.343323 1979.143799,377.393311 
	C1981.106689,378.329803 1983.043579,379.975037 1985.037964,380.047913 
	C1988.640015,380.179565 1992.355957,379.716125 1995.885742,378.900909 
	C2022.333618,372.792877 2038.591553,345.906189 2037.147339,321.147949 
	C2035.847290,298.862762 2020.251709,285.874725 1998.434448,287.821228 
	C1980.766846,289.397522 1970.579956,301.722595 1971.937134,319.880310 
	C1973.152588,336.144043 1985.617798,346.121826 2003.060669,344.732910 
	C2006.534668,344.456268 2009.991821,343.968842 2014.163452,343.499054 
	C2013.541016,346.108337 2013.400024,347.436768 2012.913818,348.623810 
	C2007.599243,361.597900 1996.925659,367.597412 1982.642700,371.243408 
z"/>
<path fill="#FFFDFD" opacity="1.000000" stroke="none" 
	d="
M898.758423,305.090698 
	C873.945129,311.908997 852.463318,323.902649 831.695557,337.312103 
	C795.977905,360.374451 764.214905,388.317352 733.421936,417.428894 
	C670.672791,476.751831 610.061951,538.214783 550.325012,600.550110 
	C548.507935,602.446228 546.865845,604.510071 544.963196,606.701965 
	C546.309204,608.546448 547.365906,610.202271 548.623413,611.688110 
	C632.379395,710.655151 715.925598,809.805847 803.048645,905.857605 
	C816.254395,920.416809 829.597900,934.928589 843.824158,948.467712 
	C869.109131,972.531372 898.101562,990.375488 933.043579,996.803284 
	C941.541260,998.366638 950.191162,999.101929 958.770325,1000.223389 
	C962.399475,1000.697815 966.127625,1000.813904 969.629639,1001.762024 
	C974.092163,1002.970276 976.479431,1007.177246 976.033875,1011.784424 
	C975.550659,1016.780762 972.308167,1018.487671 967.809753,1018.627869 
	C965.145386,1018.710999 962.477966,1018.715820 959.811890,1018.716003 
	C897.815063,1018.720459 835.817566,1018.589600 773.822144,1018.884521 
	C766.108521,1018.921204 761.087646,1016.619568 756.126221,1010.640076 
	C683.550842,923.173340 610.559448,836.051025 534.478210,751.588806 
	C516.643799,731.789795 497.893219,712.806519 479.277313,693.727844 
	C474.915863,689.257935 469.813782,685.112000 464.311340,682.233521 
	C451.041718,675.291748 442.170898,680.328491 440.538116,695.070923 
	C440.172211,698.374634 440.135162,701.727051 440.135559,705.057068 
	C440.142700,762.384216 439.760468,819.716553 440.461121,877.035522 
	C440.675629,894.581970 442.345032,912.420898 446.020233,929.552734 
	C454.723541,970.122925 481.679230,993.288330 522.978699,997.913086 
	C529.926880,998.691101 536.977661,998.673523 543.877441,999.711792 
	C547.237854,1000.217529 550.924377,1001.659424 553.446228,1003.848938 
	C556.591431,1006.579529 557.787415,1011.292053 555.340576,1014.761841 
	C553.804626,1016.939941 549.801697,1018.427551 546.907898,1018.423828 
	C531.247009,1018.403870 515.583618,1017.920166 499.926880,1017.416992 
	C422.261780,1014.921265 344.621887,1017.322144 266.974945,1018.498108 
	C262.658600,1018.563477 258.279541,1018.566528 254.031647,1017.924194 
	C249.817841,1017.287048 246.353149,1014.840820 246.300766,1010.122498 
	C246.248474,1005.411194 249.690964,1002.939941 253.833862,1002.052185 
	C258.376282,1001.078796 263.053223,1000.644226 267.694519,1000.235107 
	C302.698822,997.149963 325.723663,978.493103 335.643250,944.869507 
	C340.009644,930.069092 341.523926,914.836365 341.847687,899.459473 
	C344.935425,752.812744 344.089233,606.158813 342.644409,459.503967 
	C342.385010,433.173401 341.708069,406.841095 341.871887,380.513611 
	C342.085480,346.187469 320.832672,322.608856 294.213013,312.133179 
	C281.333374,307.064545 267.844879,305.269562 254.155426,304.468353 
	C246.075180,303.995422 243.784500,302.328796 243.698837,296.946808 
	C243.606491,291.145874 247.049728,287.643860 253.821365,286.946625 
	C256.462585,286.674713 259.148865,286.811951 261.814636,286.811798 
	C349.143524,286.806580 436.472443,286.799652 523.801331,286.834534 
	C527.448792,286.835999 531.176880,286.837097 534.722900,287.553528 
	C539.035767,288.424866 541.649353,291.477783 542.017456,295.968903 
	C542.413513,300.802216 539.434387,303.338715 535.265625,304.583160 
	C532.742676,305.336365 530.069824,305.621796 527.447449,306.000549 
	C521.187500,306.904480 514.827759,307.326660 508.666473,308.669312 
	C470.771545,316.927429 447.702820,344.168823 444.092377,385.067780 
	C443.096893,396.344910 442.574921,407.692261 442.457428,419.013855 
	C441.724213,489.672455 441.152618,560.332764 440.594971,630.993042 
	C440.566284,634.626892 440.715149,638.373169 441.565521,641.876770 
	C442.826935,647.073853 445.779205,648.541931 450.439362,646.019165 
	C455.088837,643.502258 459.569275,640.445190 463.557434,636.974060 
	C480.144775,622.537048 496.933228,608.292542 512.892517,593.179749 
	C561.320923,547.319824 607.455994,499.208191 651.936584,449.515900 
	C676.463379,422.115387 697.939758,392.492645 716.077820,360.473572 
	C726.873413,341.416321 719.072632,320.639008 698.091919,313.995422 
	C689.564880,311.295319 680.604248,309.962341 671.837952,308.020752 
	C668.264526,307.229279 664.577209,306.786987 661.132080,305.622681 
	C656.779175,304.151550 653.497070,301.365448 653.732483,296.170990 
	C653.965088,291.039703 657.356018,288.266052 661.819641,287.265808 
	C665.649231,286.407654 669.732117,286.281738 673.680725,286.428772 
	C684.668701,286.837952 695.646545,287.530640 706.625732,288.159180 
	C765.934204,291.554291 825.234131,290.255646 884.533203,287.878326 
	C887.862854,287.744812 891.202942,287.564453 894.527832,287.686646 
	C900.712036,287.913971 904.393250,290.238129 905.378784,294.606812 
	C906.530090,299.710449 903.920898,302.829468 898.758423,305.090698 
z"/>
<path fill="#FFFFFF" opacity="1.000000" stroke="none" 
	d="
M1262.000000,1627.761719 
	C1600.180054,1627.761719 1937.360229,1627.761719 2275.079590,1627.761719 
	C2275.079590,1642.276855 2275.079590,1655.781494 2275.079590,1669.220337 
	C2267.834229,1671.265015 296.212616,1672.035645 281.131409,1669.971802 
	C281.131409,1656.328857 281.131409,1642.574097 281.131409,1627.761719 
	C607.977905,1627.761719 934.488953,1627.761719 1262.000000,1627.761719 
z"/>
<path fill="#FEFBFB" opacity="1.000000" stroke="none" 
	d="
M1166.711670,301.342743 
	C1162.028564,300.195312 1158.709106,298.483246 1159.950195,293.717316 
	C1161.081543,289.372772 1164.661987,288.937897 1168.664429,288.969147 
	C1193.651245,289.164246 1218.642334,289.418457 1243.625244,289.101837 
	C1250.266724,289.017700 1254.645142,291.170227 1258.989014,296.048950 
	C1333.216064,379.416809 1407.603271,462.642151 1481.963257,545.891541 
	C1484.374023,548.590454 1486.870972,551.212219 1490.419312,555.050964 
	C1490.873169,551.633972 1491.408325,549.605530 1491.372070,547.587219 
	C1490.170044,480.622620 1488.977539,413.657715 1487.627319,346.696014 
	C1487.194702,325.244049 1477.821655,312.550385 1457.491577,305.797577 
	C1451.535034,303.819061 1445.214111,302.906586 1439.029785,301.655396 
	C1435.158691,300.872162 1431.640015,299.675690 1432.013184,294.890594 
	C1432.340820,290.691467 1435.708984,289.745544 1439.223755,289.467804 
	C1441.544800,289.284363 1443.883301,289.271423 1446.213989,289.270569 
	C1478.536255,289.258484 1510.858521,289.247101 1543.180786,289.285339 
	C1546.164795,289.288879 1549.331299,289.088440 1552.067749,290.009125 
	C1553.885498,290.620758 1556.058594,292.933746 1556.292114,294.718079 
	C1556.523926,296.490875 1554.967773,299.131714 1553.389771,300.334869 
	C1551.695435,301.626801 1549.086304,301.805481 1546.833984,302.259338 
	C1543.247070,302.982117 1539.565674,303.297455 1536.028687,304.196045 
	C1525.162231,306.956848 1517.785645,313.757050 1514.545166,324.458344 
	C1513.016479,329.507080 1511.990845,334.874298 1511.806030,340.134735 
	C1511.057739,361.441711 1510.386597,382.761902 1510.299438,404.079681 
	C1509.991211,479.386353 1509.935181,554.694092 1509.784912,630.001404 
	C1509.777710,633.620422 1509.784058,637.239441 1509.784058,642.333862 
	C1502.705566,642.333862 1496.127686,642.895691 1489.728027,642.072510 
	C1486.955078,641.715820 1484.152954,638.864258 1482.038574,636.533875 
	C1462.783813,615.312195 1443.678833,593.954468 1424.528320,572.638245 
	C1358.613403,499.269714 1292.698975,425.900726 1226.775635,352.539948 
	C1225.025635,350.592407 1223.172119,348.737823 1220.429199,345.854095 
	C1219.931885,348.939453 1219.289307,350.989655 1219.317505,353.030670 
	C1220.328979,426.330261 1221.295776,499.630890 1222.584595,572.925842 
	C1222.776978,583.865295 1223.839966,594.895142 1225.700317,605.676147 
	C1228.935669,624.424683 1239.994385,635.983948 1259.300171,638.832520 
	C1262.262573,639.269653 1265.407349,639.375977 1268.083740,640.527771 
	C1269.864746,641.294189 1272.293457,643.875610 1272.059204,645.235840 
	C1271.698120,647.332092 1269.617188,649.574585 1267.667114,650.809998 
	C1266.196167,651.741882 1263.788086,651.290100 1261.797119,651.291382 
	C1229.808105,651.311707 1197.818848,651.343079 1165.830078,651.256226 
	C1162.080444,651.246033 1156.796387,652.531311 1156.359253,646.772034 
	C1155.974487,641.703735 1160.499146,640.685974 1164.642090,640.002747 
	C1177.374634,637.903198 1185.965576,630.249573 1189.947021,618.475098 
	C1193.000488,609.445312 1195.643921,599.766785 1195.776001,590.338989 
	C1196.962280,505.719269 1197.681519,421.092041 1198.226074,336.465027 
	C1198.361938,315.335785 1189.637573,306.034058 1166.711670,301.342743 
z"/>
<path fill="#FEFBFB" opacity="1.000000" stroke="none" 
	d="
M1926.891235,392.907898 
	C1924.670654,389.576874 1922.878052,386.777313 1921.318359,383.853607 
	C1894.246216,333.107880 1851.334473,306.843445 1794.622314,302.322418 
	C1775.620728,300.807678 1756.708496,301.759857 1738.172729,307.111969 
	C1708.777954,315.599609 1685.818359,332.847443 1668.560669,357.836212 
	C1649.563843,385.343384 1639.838257,416.317291 1636.387329,449.208405 
	C1632.648315,484.844238 1636.326416,519.776855 1650.236694,553.116394 
	C1664.535645,587.387512 1687.100098,614.163391 1722.556396,627.715088 
	C1755.471802,640.295593 1789.202148,640.190247 1822.455566,629.299683 
	C1832.962036,625.858765 1842.501953,619.041199 1851.960327,612.954651 
	C1860.021973,607.766724 1863.783936,599.440979 1863.883545,589.908936 
	C1864.085693,570.584106 1864.160034,551.251953 1863.854614,531.929688 
	C1863.634521,518.018127 1856.284668,508.374847 1843.276611,504.298553 
	C1833.839600,501.341370 1823.812622,500.158630 1813.982910,498.598633 
	C1806.096680,497.347076 1802.935303,495.530670 1802.910889,491.090240 
	C1802.884155,486.215515 1806.407837,484.077209 1815.060913,484.071045 
	C1862.046509,484.037445 1909.032227,484.053467 1956.017822,484.066437 
	C1958.013184,484.066986 1960.399170,483.543915 1961.912964,484.436035 
	C1964.209595,485.789490 1967.352539,488.100067 1967.452148,490.135406 
	C1967.558105,492.300079 1964.918457,495.150696 1962.758545,496.697601 
	C1961.075684,497.902679 1958.279785,497.511047 1955.997314,497.930420 
	C1951.095337,498.831177 1946.072266,499.365326 1941.337036,500.823425 
	C1930.222778,504.245758 1923.074219,511.569214 1921.402588,523.395935 
	C1920.659424,528.653625 1920.074585,533.980347 1920.026245,539.281311 
	C1919.859375,557.607544 1919.775635,575.939209 1920.076660,594.261963 
	C1920.162109,599.469604 1918.526245,602.741455 1914.390625,605.953430 
	C1867.728638,642.195923 1814.583496,656.301208 1756.193848,652.908569 
	C1727.356445,651.232971 1699.372681,645.685364 1672.947632,633.758972 
	C1618.077026,608.994202 1586.780396,566.242493 1577.966064,507.045929 
	C1572.854004,472.714661 1573.904541,438.553375 1585.033813,405.312164 
	C1601.189941,357.056061 1634.275757,324.443237 1680.670898,305.384827 
	C1731.765625,284.395905 1784.495972,280.209473 1838.271729,293.830231 
	C1855.532227,298.202118 1871.161499,306.419006 1886.270752,315.688843 
	C1891.367798,318.815948 1896.524048,321.981689 1901.995850,324.332520 
	C1911.289795,328.325500 1918.032715,325.494873 1922.537354,316.351227 
	C1923.561035,314.273315 1923.746704,311.545013 1925.233398,309.993073 
	C1927.084595,308.060883 1929.789917,306.104492 1932.298706,305.848602 
	C1935.784180,305.493042 1937.251221,308.606567 1937.611694,311.865479 
	C1937.757568,313.184570 1937.715088,314.527313 1937.715332,315.859283 
	C1937.720825,339.185486 1937.793945,362.512054 1937.680298,385.837708 
	C1937.638916,394.330872 1936.319336,395.147125 1926.891235,392.907898 
z"/>
<path fill="#FFFCFC" opacity="1.000000" stroke="none" 
	d="
M1902.000000,1586.029175 
	C1361.165039,1586.029175 821.330078,1586.029175 280.943481,1586.029175 
	C280.943481,1579.501953 280.943481,1574.033447 280.943481,1567.962158 
	C945.787720,1567.962158 1610.165771,1567.962158 2275.125732,1567.962158 
	C2275.312744,1571.333740 2275.579834,1574.243164 2275.603760,1577.154541 
	C2275.625000,1579.739136 2275.376465,1582.325928 2275.190674,1586.029175 
	C2150.749512,1586.029175 2026.874756,1586.029175 1902.000000,1586.029175 
z"/>
<path fill="#FFFCFC" opacity="1.000000" stroke="none" 
	d="
M1601.691895,1258.517700 
	C1604.959961,1284.312256 1605.451904,1309.159668 1600.387207,1333.954834 
	C1590.699463,1381.382324 1563.595337,1415.101562 1520.233643,1435.943848 
	C1492.451294,1449.297852 1462.820435,1455.255737 1432.192749,1455.527710 
	C1383.882202,1455.956787 1335.565430,1455.666992 1287.251221,1455.669067 
	C1285.255249,1455.669189 1282.843262,1456.221069 1281.365479,1455.312134 
	C1279.391846,1454.098022 1276.906982,1451.689819 1276.929688,1449.822388 
	C1276.952637,1447.937744 1279.452148,1445.050049 1281.433472,1444.438477 
	C1285.491577,1443.186035 1289.982788,1443.429199 1294.200317,1442.582275 
	C1305.279175,1440.358032 1311.611450,1433.110840 1313.680664,1422.364624 
	C1314.869751,1416.189575 1315.403320,1409.796265 1315.413574,1403.500000 
	C1315.530762,1331.195435 1315.490845,1258.890625 1315.492188,1186.585815 
	C1315.492188,1185.586182 1315.506348,1184.585938 1315.479004,1183.587036 
	C1314.972656,1165.132568 1306.437256,1155.311035 1288.234253,1152.472412 
	C1284.049927,1151.819824 1278.970947,1152.735962 1278.518677,1146.496582 
	C1278.221069,1142.390015 1281.860962,1140.179810 1289.075928,1140.180542 
	C1340.721802,1140.185669 1392.372803,1139.857422 1444.011230,1140.506714 
	C1467.673096,1140.804199 1491.102173,1144.151123 1513.815918,1151.557617 
	C1562.043213,1167.283813 1590.153320,1200.511475 1600.043945,1249.805054 
	C1600.567993,1252.416382 1601.064575,1255.033325 1601.691895,1258.517700 
M1454.057251,1437.480103 
	C1499.837402,1427.500610 1529.739990,1399.887817 1543.218872,1355.282227 
	C1554.221313,1318.871704 1555.323608,1281.735596 1545.848145,1244.800659 
	C1534.328613,1199.897339 1505.625366,1171.548218 1460.719116,1159.827759 
	C1438.555542,1154.043091 1415.990601,1153.278076 1393.292114,1155.240845 
	C1388.349731,1155.668213 1383.373047,1156.486206 1378.588501,1157.777344 
	C1370.074341,1160.074707 1364.900513,1165.802490 1363.680420,1174.621338 
	C1362.998779,1179.547974 1362.526123,1184.548706 1362.520630,1189.516724 
	C1362.446411,1257.131592 1362.442993,1324.746460 1362.521118,1392.361328 
	C1362.527588,1398.000732 1362.919312,1403.685059 1363.694702,1409.270386 
	C1366.490356,1429.407715 1377.240967,1439.850220 1397.596436,1440.056763 
	C1415.845703,1440.242188 1434.113647,1438.607178 1454.057251,1437.480103 
z"/>
<path fill="#FEFAFA" opacity="1.000000" stroke="none" 
	d="
M1000.770203,1146.568359 
	C1066.280762,1223.765991 1131.288330,1300.387451 1197.735229,1378.705322 
	C1197.984863,1374.011230 1198.256348,1371.526001 1198.228638,1369.044312 
	C1197.554565,1308.737305 1196.902588,1248.429932 1196.118774,1188.124390 
	C1195.839600,1166.634277 1184.260498,1154.173828 1162.844482,1151.809204 
	C1159.539429,1151.444214 1156.117676,1151.491089 1152.978394,1150.569458 
	C1151.587402,1150.161255 1149.890747,1147.788696 1149.932983,1146.354858 
	C1149.974609,1144.941284 1151.787354,1143.008667 1153.281494,1142.360107 
	C1154.988525,1141.619141 1157.201416,1141.973877 1159.194580,1141.972900 
	C1189.516968,1141.957275 1219.839478,1141.906494 1250.161377,1142.032227 
	C1253.780151,1142.047241 1259.253052,1140.232544 1259.779541,1146.088379 
	C1260.329102,1152.204346 1254.712891,1151.211304 1251.047729,1151.384155 
	C1225.635376,1152.581665 1216.493896,1167.728271 1216.245361,1188.953491 
	C1215.858765,1221.938477 1215.945312,1254.928589 1215.707153,1287.915649 
	C1215.324707,1340.894897 1214.847046,1393.873413 1214.381104,1446.852051 
	C1214.358276,1449.448730 1214.061646,1452.043091 1213.872925,1454.939697 
	C1204.432251,1456.888550 1197.837402,1455.217773 1191.159180,1447.312500 
	C1118.053955,1360.775391 1044.469116,1274.643677 971.000366,1188.413818 
	C968.714355,1185.730713 966.274231,1183.178833 962.136536,1181.127930 
	C962.136536,1183.279053 962.117981,1185.430542 962.139282,1187.581421 
	C962.841064,1258.551636 963.467712,1329.522705 964.376892,1400.490356 
	C964.465271,1407.389526 965.633179,1414.450562 967.467102,1421.115234 
	C971.285278,1434.991089 980.950623,1442.867676 995.051086,1445.332397 
	C997.010498,1445.674927 999.308655,1445.149048 1000.945190,1445.998047 
	C1002.988647,1447.058350 1005.532654,1448.869995 1006.021729,1450.818726 
	C1006.808228,1453.952393 1004.119446,1455.404785 1001.102478,1455.593994 
	C999.441833,1455.697998 997.772400,1455.684326 996.106934,1455.684570 
	C969.783142,1455.688965 943.459167,1455.733765 917.135742,1455.633667 
	C913.402710,1455.619385 907.946655,1457.265747 907.218689,1451.735962 
	C906.369019,1445.281250 912.154053,1446.190430 916.291748,1445.581055 
	C926.690796,1444.049316 934.747314,1438.609131 937.977600,1428.675781 
	C940.817993,1419.941284 943.057129,1410.574463 943.166809,1401.457886 
	C944.041016,1328.824097 944.347717,1256.183350 944.804504,1183.544678 
	C944.819153,1181.217651 944.667175,1178.879883 944.437622,1176.562500 
	C942.988159,1161.929321 935.658691,1154.319092 921.209106,1152.341919 
	C917.501404,1151.834595 912.535156,1153.318848 912.000977,1147.316162 
	C911.657715,1143.459717 914.405151,1141.993530 921.851440,1141.977905 
	C944.509766,1141.930420 967.168335,1141.985229 989.826660,1141.937500 
	C993.891479,1141.928955 997.932007,1141.683105 1000.770203,1146.568359 
z"/>
<path fill="#FEFAFA" opacity="1.000000" stroke="none" 
	d="
M2008.053711,1194.077881 
	C2008.039429,1188.093628 2008.242798,1183.082397 2007.958252,1178.098999 
	C2007.075684,1162.638672 1999.238159,1154.246216 1984.022217,1152.336914 
	C1980.172485,1151.854004 1974.981079,1152.856323 1975.265503,1146.942993 
	C1975.534180,1141.355713 1980.464111,1141.961182 1984.471436,1141.961304 
	C2006.800171,1141.962402 2029.133545,1142.217529 2051.454346,1141.798218 
	C2057.816895,1141.678955 2061.810059,1143.759399 2065.835693,1148.527954 
	C2116.136230,1208.112305 2166.639648,1267.525391 2217.090332,1326.983032 
	C2229.379639,1341.466309 2241.654541,1355.961792 2253.965332,1370.426880 
	C2255.869385,1372.664429 2257.931152,1374.767822 2260.999756,1378.108521 
	C2261.327393,1374.275391 2261.741211,1371.835205 2261.714355,1369.399658 
	C2261.058105,1309.416260 2260.418701,1249.432739 2259.626709,1189.451172 
	C2259.321289,1166.336060 2247.490234,1153.829834 2224.417725,1151.656616 
	C2221.767822,1151.407104 2218.875000,1151.706787 2216.551514,1150.698853 
	C2214.881104,1149.973999 2213.301514,1147.607300 2212.993896,1145.755005 
	C2212.830811,1144.772461 2215.285156,1142.921875 2216.889648,1142.209961 
	C2218.296387,1141.585815 2220.165771,1141.967896 2221.830811,1141.967407 
	C2252.491211,1141.959717 2283.151367,1141.956787 2313.811768,1141.970703 
	C2315.806152,1141.971680 2318.025391,1141.601196 2319.727783,1142.346191 
	C2321.254883,1143.014771 2323.138916,1144.967163 2323.163818,1146.383057 
	C2323.188965,1147.822510 2321.398926,1150.102905 2319.933350,1150.585815 
	C2317.155518,1151.500854 2314.042480,1151.412476 2311.065918,1151.709229 
	C2292.086426,1153.601196 2281.500732,1164.283325 2279.960205,1183.242065 
	C2279.663818,1186.890137 2279.653320,1190.566406 2279.627441,1194.230591 
	C2279.036377,1277.544312 2278.460449,1360.858154 2277.886230,1444.171997 
	C2277.863525,1447.471313 2277.883301,1450.770752 2277.883301,1454.487915 
	C2268.421387,1457.075317 2261.660889,1455.794067 2254.964355,1447.882080 
	C2181.765869,1361.400513 2108.189941,1275.238037 2034.710449,1188.994263 
	C2032.369141,1186.246094 2029.960449,1183.555176 2026.580444,1179.691528 
	C2026.138550,1183.042358 2025.609253,1185.118164 2025.628662,1187.188721 
	C2026.302246,1258.836914 2027.004028,1330.484619 2027.801270,1402.131470 
	C2027.852783,1406.762451 2028.252319,1411.483154 2029.251465,1415.993530 
	C2033.382080,1434.642822 2042.894165,1443.161133 2061.925781,1445.739014 
	C2062.913330,1445.872803 2064.263916,1445.493164 2064.850342,1446.017822 
	C2066.623535,1447.604492 2068.710693,1449.320068 2069.393799,1451.405396 
	C2069.660645,1452.219727 2066.702148,1454.526733 2064.860107,1455.450439 
	C2063.514404,1456.125122 2061.592041,1455.681274 2059.926758,1455.681763 
	C2033.265625,1455.688721 2006.604370,1455.732788 1979.943604,1455.634521 
	C1976.221802,1455.620850 1970.854126,1457.118286 1970.361816,1451.354004 
	C1969.874634,1445.649658 1975.018799,1446.104492 1978.958008,1445.622559 
	C1990.292725,1444.235596 1998.451294,1438.073242 2001.805786,1427.379761 
	C2004.354614,1419.254761 2006.006470,1410.507935 2006.117554,1402.012451 
	C2007.019775,1333.032837 2007.464233,1264.047363 2008.053711,1194.077881 
z"/>
<path fill="#FEFBFB" opacity="1.000000" stroke="none" 
	d="
M2174.320312,653.876465 
	C2153.895020,652.823547 2135.180664,648.530151 2117.181641,641.006958 
	C2110.122803,638.056519 2103.095459,634.850464 2095.767822,632.767700 
	C2086.351562,630.091248 2077.141846,630.245850 2070.733154,639.566772 
	C2068.790039,642.393005 2066.678223,645.361755 2062.777344,644.249878 
	C2058.370117,642.993713 2058.245361,638.984680 2058.242432,635.245911 
	C2058.221924,608.257019 2058.230469,581.268188 2058.237793,554.279297 
	C2058.238037,553.281067 2058.232422,552.270691 2058.374268,551.286865 
	C2058.879883,547.783325 2060.112793,544.752747 2064.142334,544.173645 
	C2068.208984,543.589233 2070.353760,546.097412 2071.550537,549.468323 
	C2073.220215,554.170044 2074.470215,559.021912 2076.170410,563.711487 
	C2099.577148,628.270935 2158.375488,642.965271 2203.026611,633.812378 
	C2235.634766,627.128052 2255.230469,603.533203 2257.652832,568.841919 
	C2259.706055,539.439697 2249.048096,516.280212 2222.521484,502.566956 
	C2205.736572,493.889801 2187.946533,487.057220 2170.312012,480.150909 
	C2152.323242,473.105682 2134.155273,466.571655 2117.623291,456.354279 
	C2094.851807,442.280792 2078.567383,423.355530 2073.064941,396.448639 
	C2070.296631,382.912201 2069.972656,369.258209 2072.717285,355.739532 
	C2077.445068,332.450806 2090.728760,315.188293 2111.457520,303.857452 
	C2137.486572,289.629181 2165.626221,285.799469 2194.698730,289.087738 
	C2205.864746,290.350708 2216.765625,293.896637 2227.817627,296.260284 
	C2232.351318,297.229919 2236.939941,298.127289 2241.549316,298.512604 
	C2247.277344,298.991333 2251.901123,296.520355 2255.306641,291.882050 
	C2256.683350,290.006775 2257.750977,287.850128 2259.354492,286.207306 
	C2262.575928,282.907166 2266.108398,283.701508 2267.889404,288.065399 
	C2268.635742,289.893860 2269.007568,291.913300 2269.299316,293.882996 
	C2272.178955,313.311615 2275.037109,332.743561 2277.804443,352.188354 
	C2278.121826,354.418549 2277.847412,356.733032 2277.847412,358.864960 
	C2272.587158,362.351532 2269.279785,360.197327 2266.657715,356.067657 
	C2264.160156,352.134430 2262.041992,347.951294 2259.421875,344.106567 
	C2236.501953,310.476013 2204.252930,297.868011 2164.917236,304.548523 
	C2125.269775,311.282013 2116.509521,343.532440 2120.941406,370.142731 
	C2123.652344,386.419495 2132.459473,399.009094 2145.330566,408.939209 
	C2161.156250,421.148987 2179.505615,428.012115 2198.319336,433.953033 
	C2210.368408,437.757874 2222.664551,441.108734 2234.180908,446.181946 
	C2245.991699,451.384857 2257.674072,457.460449 2268.211426,464.863586 
	C2299.977539,487.180817 2312.380859,518.715454 2309.253418,556.827820 
	C2308.738037,563.108765 2307.657715,569.387024 2306.299316,575.547729 
	C2299.937500,604.405518 2283.232910,625.256531 2256.890381,638.446594 
	C2234.986816,649.414001 2211.457275,653.194702 2187.270020,653.918518 
	C2183.275391,654.038086 2179.273682,653.906189 2174.320312,653.876465 
z"/>
<path fill="#FEFBFB" opacity="1.000000" stroke="none" 
	d="
M1784.700928,1457.659424 
	C1773.027466,1455.408203 1762.012939,1454.100098 1751.578003,1450.901123 
	C1711.670898,1438.667236 1681.318359,1414.040771 1663.567627,1376.278076 
	C1637.360840,1320.525635 1636.501587,1264.239258 1670.234253,1211.322876 
	C1704.353027,1157.800171 1755.698486,1136.306641 1818.215088,1141.104614 
	C1853.871948,1143.841309 1885.460327,1157.171387 1911.429321,1182.100464 
	C1946.237061,1215.514282 1960.658569,1257.168457 1958.998413,1304.797485 
	C1958.155273,1328.985352 1953.339233,1352.378296 1942.644653,1374.270752 
	C1919.679443,1421.281494 1881.541748,1447.940063 1830.415894,1455.869995 
	C1815.742554,1458.145996 1800.569702,1457.201782 1784.700928,1457.659424 
M1866.195679,1180.769043 
	C1863.935913,1178.799927 1861.749512,1176.738647 1859.405518,1174.875244 
	C1818.221313,1142.133301 1758.982178,1149.354248 1726.825806,1191.020996 
	C1717.358887,1203.287598 1710.600098,1216.974487 1706.002930,1231.708252 
	C1695.799316,1264.410400 1694.249634,1297.759766 1699.088745,1331.506714 
	C1702.674927,1356.515869 1710.046143,1380.243774 1724.522095,1401.238159 
	C1745.256592,1431.309204 1773.715698,1446.295532 1810.564575,1443.802124 
	C1846.633545,1441.361206 1873.835449,1424.788940 1890.301880,1392.138306 
	C1894.176514,1384.455322 1897.510986,1376.339355 1899.851318,1368.070923 
	C1910.077148,1331.942993 1911.942017,1295.158203 1905.467773,1258.261108 
	C1900.364502,1229.177490 1888.678223,1202.907227 1866.195679,1180.769043 
z"/>
<path fill="#FEFBFB" opacity="1.000000" stroke="none" 
	d="
M886.686279,1350.690918 
	C866.987854,1411.982666 825.446167,1446.602173 762.962585,1456.364868 
	C738.640015,1460.164917 714.465149,1458.826294 690.709351,1452.148560 
	C650.122986,1440.739746 618.841309,1416.903076 600.100159,1379.155273 
	C572.486023,1323.535767 570.866394,1266.942139 604.109375,1213.231567 
	C638.208740,1158.137451 690.260437,1136.059814 754.057373,1141.221191 
	C791.215942,1144.227417 823.597107,1158.762817 849.949463,1185.460449 
	C877.592468,1213.465576 891.551086,1247.674316 893.921814,1286.685303 
	C895.223999,1308.111572 892.980835,1329.255981 886.686279,1350.690918 
M631.705872,1312.737305 
	C633.572998,1344.128906 640.723877,1374.009766 658.486023,1400.439941 
	C679.065918,1431.063110 707.766785,1446.309204 745.031006,1443.797363 
	C780.642517,1441.396851 807.656738,1425.198486 824.332825,1393.114502 
	C827.237671,1387.525757 829.984375,1381.745239 831.883850,1375.761230 
	C845.473389,1332.950684 847.900208,1289.510376 837.160461,1245.803955 
	C830.683777,1219.446899 818.247925,1196.083252 797.481812,1177.887207 
	C756.321045,1141.820801 694.611938,1147.881836 661.182495,1191.194824 
	C652.766235,1202.099487 646.580444,1214.203491 642.007812,1227.152954 
	C632.432190,1254.270996 630.048523,1282.290405 631.705872,1312.737305 
z"/>
<path fill="#FFFCFC" opacity="1.000000" stroke="none" 
	d="
M1014.409668,603.355774 
	C1014.676453,597.775024 1015.026550,593.118591 1015.028503,588.462097 
	C1015.062439,508.520386 1015.075317,428.578674 1015.004089,348.637024 
	C1014.999329,343.331665 1014.913208,337.886627 1013.769470,332.750488 
	C1011.207764,321.246521 1003.782593,312.984833 993.249817,308.486359 
	C984.783142,304.870331 975.572510,302.932434 966.602905,300.591187 
	C963.223572,299.709106 959.592468,299.286499 959.647156,294.985748 
	C959.705688,290.384186 963.461853,289.121887 967.261169,288.596130 
	C969.554504,288.278778 971.913513,288.388458 974.243042,288.387970 
	C1019.543335,288.378265 1064.843628,288.371826 1110.143921,288.400574 
	C1113.130005,288.402466 1116.409180,287.980560 1119.015137,289.056519 
	C1121.388672,290.036560 1124.265137,292.549988 1124.700073,294.814056 
	C1125.317383,298.027405 1122.385742,299.926300 1118.971313,300.338928 
	C1115.005493,300.818207 1111.040405,301.346893 1107.104248,302.023590 
	C1083.666016,306.053009 1072.130249,319.337189 1072.099121,343.157593 
	C1071.989502,426.763123 1072.025391,510.368927 1072.140625,593.974426 
	C1072.147949,599.248474 1072.825317,604.631653 1074.013428,609.773987 
	C1078.138062,627.624634 1090.852783,638.367493 1109.194824,639.958740 
	C1111.846924,640.188843 1114.548340,640.020569 1117.166748,640.425354 
	C1120.558716,640.949829 1124.482910,642.158447 1123.583740,646.301880 
	C1123.148926,648.306152 1119.618042,649.995789 1117.159058,651.080139 
	C1115.475708,651.822510 1113.223389,651.299194 1111.225342,651.299377 
	C1066.924316,651.304077 1022.623230,651.321106 978.322266,651.265747 
	C975.020752,651.261597 971.494019,651.340027 968.497864,650.230286 
	C966.489380,649.486450 964.609009,646.899658 963.954346,644.747253 
	C963.698486,643.905884 966.746033,641.458435 968.665161,640.719788 
	C970.739624,639.921387 973.252014,640.231812 975.576172,640.115356 
	C999.569519,638.913025 1011.265869,628.102783 1014.409668,603.355774 
z"/>
<path fill="#FEFAFA" opacity="1.000000" stroke="none" 
	d="
M2061.273438,899.232056 
	C2038.143677,927.392090 2008.612305,936.043335 1974.123901,931.362976 
	C1967.894287,930.517456 1961.453369,929.742371 1955.261230,930.387390 
	C1937.451294,932.242798 1930.134155,947.350586 1940.182861,962.176819 
	C1944.366699,968.350037 1950.305176,973.747253 1956.443726,978.085266 
	C1965.655518,984.595276 1975.937256,989.567200 1985.415405,995.729553 
	C1997.950684,1003.879517 2010.679077,1011.888367 2022.301025,1021.230774 
	C2029.693726,1027.173462 2036.212769,1034.785767 2041.408691,1042.765869 
	C2055.573975,1064.521240 2050.684326,1089.023560 2029.887085,1104.555054 
	C2014.308105,1116.189575 1996.356812,1122.176636 1977.453979,1125.280762 
	C1950.507568,1129.705566 1923.673950,1128.613037 1897.205444,1121.726685 
	C1886.190430,1118.860840 1875.807495,1114.346313 1866.572510,1107.535767 
	C1856.976196,1100.458984 1849.547485,1091.688965 1845.665283,1080.217773 
	C1840.531616,1065.048584 1842.455322,1050.931396 1853.889648,1039.509644 
	C1860.630249,1032.776123 1868.355835,1026.431396 1876.763916,1022.093140 
	C1892.374023,1014.038940 1908.808228,1007.582092 1925.344849,1000.262817 
	C1924.181763,999.068359 1922.364746,997.360413 1920.729858,995.492920 
	C1916.577515,990.749329 1911.875977,986.335693 1908.524658,981.070374 
	C1899.473511,966.850098 1901.273560,951.279114 1912.783569,938.910217 
	C1919.992310,931.163635 1929.106567,926.466492 1938.832275,922.687622 
	C1942.705933,921.182556 1946.356323,919.102905 1950.577148,917.057617 
	C1949.258545,913.846069 1948.699707,911.593323 1947.515869,909.739746 
	C1936.246704,892.095459 1934.921265,873.083557 1942.259399,854.177795 
	C1956.920898,816.404236 1984.480347,793.427795 2024.928955,787.491394 
	C2040.326660,785.231567 2055.577148,787.116577 2069.069580,796.066895 
	C2075.019287,800.013855 2080.529053,798.560608 2085.810791,795.050720 
	C2094.298340,789.410461 2103.519531,785.722412 2113.632080,784.816650 
	C2117.844727,784.439392 2122.343506,784.773254 2126.417725,785.874084 
	C2134.042236,787.934021 2136.751953,793.697510 2134.518311,801.393433 
	C2132.546875,808.186646 2126.960449,811.453796 2119.678467,808.962280 
	C2112.108154,806.372192 2104.853027,802.871399 2096.542236,804.042419 
	C2093.923096,804.411377 2091.271240,804.743286 2088.732178,805.445679 
	C2083.947510,806.769592 2081.505127,809.949646 2081.925537,815.056763 
	C2082.062256,816.715942 2082.071045,818.399170 2082.367920,820.029602 
	C2087.725830,849.465576 2079.456055,875.312500 2061.273438,899.232056 
M1917.549194,1107.992065 
	C1941.597412,1115.034058 1965.595947,1114.729004 1989.123047,1106.212769 
	C2017.385132,1095.982422 2022.247803,1074.304810 2000.791992,1053.505981 
	C1983.985962,1037.214966 1964.759033,1024.088867 1943.597046,1013.893738 
	C1940.083740,1012.201172 1936.894531,1011.401367 1933.238281,1013.457214 
	C1920.810181,1020.445496 1907.550293,1026.237061 1896.003906,1034.448364 
	C1875.498047,1049.031494 1874.003052,1072.851074 1891.082153,1091.499146 
	C1897.990356,1099.042114 1906.580688,1103.954956 1917.549194,1107.992065 
M1968.450806,870.018982 
	C1965.685547,879.705872 1964.130127,889.492554 1965.707031,899.595459 
	C1967.836304,913.237610 1975.685425,919.349792 1989.359253,917.669800 
	C2000.345703,916.320007 2010.040039,911.568970 2017.331787,903.532471 
	C2026.009155,893.968994 2034.434082,883.937439 2041.363281,873.083862 
	C2051.281006,857.549255 2057.743408,840.358887 2059.406982,821.757019 
	C2061.037598,803.524475 2051.332275,794.698853 2033.384155,797.937500 
	C2030.469238,798.463562 2027.354126,799.146545 2024.891113,800.664734 
	C2018.407227,804.661621 2011.592896,808.467346 2006.053467,813.586243 
	C1989.460815,828.919006 1976.658447,847.019470 1968.450806,870.018982 
z"/>
<path fill="#FEFAFA" opacity="1.000000" stroke="none" 
	d="
M316.001221,1455.691406 
	C305.668488,1455.691040 296.335388,1455.695068 287.002258,1455.686768 
	C285.002808,1455.685059 282.991089,1455.770020 281.006653,1455.584229 
	C277.444092,1455.250610 274.217194,1454.065918 274.217926,1449.812500 
	C274.218597,1445.698975 276.985474,1444.289062 280.820770,1443.945435 
	C284.778259,1443.591064 288.794189,1443.101685 292.604614,1442.031128 
	C307.306580,1437.900024 315.553833,1427.850952 317.858521,1412.981445 
	C318.619171,1408.073730 318.560944,1403.010376 318.563995,1398.018066 
	C318.605255,1330.686279 318.600006,1263.354492 318.570038,1196.022705 
	C318.568115,1191.694336 318.520752,1187.339355 318.063049,1183.042725 
	C316.469574,1168.083130 307.576172,1157.760864 292.954132,1154.285278 
	C287.808990,1153.062378 282.437256,1152.667480 277.140961,1152.250610 
	C273.748871,1151.983765 270.859039,1151.058228 270.985962,1147.326660 
	C271.106781,1143.774658 273.985901,1142.449585 277.333160,1142.359619 
	C278.998749,1142.314941 280.665863,1142.311401 282.332275,1142.311279 
	C320.664734,1142.308838 358.997192,1142.297852 397.329620,1142.335693 
	C399.967834,1142.338257 402.883179,1142.091919 405.153809,1143.110718 
	C406.897888,1143.893555 408.822113,1146.493530 408.810028,1148.272827 
	C408.800262,1149.707764 406.238892,1151.701050 404.408783,1152.405518 
	C401.989502,1153.336426 399.169067,1153.188721 396.538544,1153.613037 
	C376.379028,1156.864868 366.627472,1167.887573 366.525940,1188.208496 
	C366.364410,1220.540283 366.478699,1252.873413 366.478027,1285.206055 
	C366.477234,1324.205200 366.448212,1363.204224 366.489441,1402.203369 
	C366.515289,1426.645996 372.608856,1434.768677 396.839111,1438.515625 
	C428.021240,1443.337769 459.382599,1442.934326 490.184967,1435.602295 
	C520.788452,1428.317505 541.664978,1408.796021 554.745361,1380.575928 
	C556.982727,1375.748901 558.472595,1370.540771 561.044128,1365.918335 
	C562.280151,1363.696533 565.374939,1360.871948 567.377686,1361.055176 
	C571.509827,1361.433350 571.693359,1365.215088 570.994751,1368.854980 
	C567.542786,1386.838745 564.175354,1404.838501 560.772766,1422.831665 
	C558.743713,1433.561768 556.704834,1444.289917 554.542908,1455.691406 
	C474.853058,1455.691406 395.926941,1455.691406 316.001221,1455.691406 
z"/>
<path fill="#FEFAFA" opacity="1.000000" stroke="none" 
	d="
M1109.383545,721.373291 
	C1135.613159,708.706787 1162.440918,701.606628 1190.963623,701.982666 
	C1217.951172,702.338501 1242.099609,709.779114 1261.036865,730.357178 
	C1267.230347,737.087280 1270.747803,736.905273 1278.197388,731.057556 
	C1280.810303,729.006531 1283.106934,726.397827 1285.988525,724.880371 
	C1290.249146,722.636719 1294.056641,725.726868 1293.360962,730.544800 
	C1293.125854,732.172241 1292.445679,733.737976 1291.943970,735.324036 
	C1284.819214,757.849548 1277.716309,780.381897 1270.547241,802.893250 
	C1268.110840,810.543518 1266.046631,812.524841 1261.874268,811.670776 
	C1257.682983,810.812805 1257.000366,808.095947 1256.696289,800.331238 
	C1256.281494,789.733276 1256.212891,778.885254 1253.844360,768.641907 
	C1244.291626,727.330505 1209.844482,712.454407 1176.702148,716.858337 
	C1161.255249,718.910950 1147.154663,724.750610 1134.056396,732.977783 
	C1128.147583,736.689148 1122.232178,740.580688 1117.022705,745.185669 
	C1069.111816,787.537170 1034.885132,838.410461 1021.145203,901.661621 
	C1016.729309,921.989929 1015.539124,942.657715 1020.108032,963.135193 
	C1021.822815,970.820618 1024.652222,978.541199 1028.468628,985.415771 
	C1036.798828,1000.421570 1050.240234,1008.441040 1067.270386,1010.145996 
	C1087.275269,1012.148743 1106.384033,1007.796814 1125.008667,1001.068176 
	C1145.490845,993.668640 1164.313599,983.054321 1182.038452,970.462219 
	C1195.313721,961.031067 1205.216919,948.585632 1213.832031,934.957031 
	C1215.583496,932.186218 1217.554688,929.316956 1220.098145,927.375427 
	C1221.565063,926.255676 1224.669189,926.221985 1226.489746,926.991882 
	C1227.727783,927.515442 1228.628296,930.292664 1228.589355,932.037964 
	C1228.531738,934.629578 1227.732910,937.277588 1226.863770,939.766968 
	C1217.211304,967.413818 1207.518433,995.046692 1197.739624,1022.649048 
	C1196.340454,1026.598145 1195.443604,1031.927734 1189.624512,1031.054565 
	C1183.771362,1030.176392 1184.829102,1024.757446 1184.348145,1020.617065 
	C1184.002563,1017.642456 1184.074951,1014.592285 1183.462646,1011.680603 
	C1181.601929,1002.832336 1177.807861,1000.268921 1169.221924,1002.816895 
	C1161.582642,1005.083801 1154.294556,1008.521423 1146.674561,1010.867920 
	C1132.711670,1015.167725 1118.822998,1020.126343 1104.528564,1022.826355 
	C1086.149170,1026.298096 1067.442871,1026.279175 1048.928589,1022.260742 
	C1006.005371,1012.944519 978.134338,980.160034 976.019653,936.228577 
	C974.401062,902.604797 981.055298,870.534119 995.698853,840.359741 
	C1020.692261,788.858521 1057.202515,748.077026 1109.383545,721.373291 
z"/>
<path fill="#FEF9F9" opacity="1.000000" stroke="none" 
	d="
M1457.523193,897.364258 
	C1447.157471,933.709045 1430.099854,965.331482 1403.569092,991.396545 
	C1388.575928,1006.126465 1371.349243,1017.217712 1350.271484,1021.070862 
	C1338.981812,1023.134766 1327.676147,1022.872192 1316.744873,1018.998596 
	C1294.022827,1010.946960 1283.900146,992.972168 1280.009644,970.729675 
	C1275.303101,943.820923 1279.938721,917.636658 1288.055542,892.017151 
	C1297.459106,862.336426 1312.723022,836.007080 1335.265137,814.285461 
	C1352.168213,797.997681 1371.612061,786.214050 1395.354004,782.997070 
	C1425.781250,778.874451 1449.318970,790.678162 1457.841553,823.439392 
	C1464.165039,847.747253 1463.870239,872.202393 1457.523193,897.364258 
M1424.167114,903.038757 
	C1431.677979,886.660400 1438.189453,869.847839 1440.833496,852.001526 
	C1442.378052,841.576843 1442.902344,830.723328 1441.885254,820.257141 
	C1440.019775,801.061707 1425.391113,791.828064 1406.868896,797.697876 
	C1400.029907,799.865295 1393.153076,803.234192 1387.540405,807.642578 
	C1378.959473,814.382446 1370.687378,821.843201 1363.637817,830.147034 
	C1336.314209,862.332031 1317.541992,899.160828 1306.620605,939.908569 
	C1303.170776,952.780029 1301.151123,965.958679 1301.909424,979.397095 
	C1303.120361,1000.856140 1319.056763,1011.827148 1339.328613,1004.618469 
	C1345.496826,1002.424988 1351.594727,999.183838 1356.739258,995.161682 
	C1364.301392,989.249268 1371.476562,982.658203 1377.938599,975.557312 
	C1397.136963,954.461182 1411.535522,930.175537 1424.167114,903.038757 
z"/>
<path fill="#FEF9F9" opacity="1.000000" stroke="none" 
	d="
M2233.992188,795.903564 
	C2248.311035,790.438843 2262.290771,788.121033 2276.832275,789.772095 
	C2296.485596,792.003601 2306.444824,803.383057 2306.116211,823.211792 
	C2305.868652,838.153259 2299.378418,850.103271 2288.432129,859.828430 
	C2278.351562,868.784363 2266.484619,874.782410 2254.196777,880.049683 
	C2227.429688,891.523560 2199.250732,898.372131 2170.809570,903.536316 
	C2158.190430,905.827698 2151.760010,911.710022 2147.752441,923.074097 
	C2142.068604,939.190979 2136.596191,955.131165 2139.751221,972.642822 
	C2143.189697,991.727112 2155.721680,1002.202820 2175.214844,1002.135376 
	C2186.177490,1002.097412 2196.146973,998.620850 2205.648438,993.576538 
	C2217.527588,987.269714 2227.718262,978.746643 2237.009033,969.094543 
	C2238.623535,967.417480 2240.048340,965.371460 2241.997314,964.265808 
	C2243.382812,963.479919 2246.195557,963.250427 2247.111328,964.111816 
	C2248.160889,965.099304 2248.149170,967.601624 2247.962646,969.379089 
	C2247.840576,970.541748 2246.670410,971.653503 2245.830322,972.673401 
	C2225.565918,997.272522 2201.343750,1015.812317 2168.972900,1020.801636 
	C2160.224121,1022.150085 2150.879150,1022.477722 2142.212891,1020.960083 
	C2119.515137,1016.985168 2104.928467,998.799500 2104.034180,974.980164 
	C2103.258545,954.322144 2107.543945,934.502380 2115.841797,915.747253 
	C2139.958496,861.236816 2178.183105,820.370850 2233.992188,795.903564 
M2193.256104,846.294373 
	C2182.577393,859.202698 2172.525391,872.511780 2164.702637,888.786194 
	C2167.647949,888.786194 2168.942627,888.958313 2170.178223,888.760742 
	C2193.875000,884.971619 2217.247314,879.641235 2238.931396,869.208008 
	C2248.356445,864.673218 2257.067383,858.172791 2265.115479,851.393433 
	C2272.998047,844.753662 2276.705322,835.281250 2277.150391,824.856689 
	C2277.757812,810.629761 2271.217529,803.895325 2257.056396,803.570618 
	C2245.116211,803.296997 2234.593750,807.675964 2225.875488,815.015930 
	C2214.733154,824.396545 2204.695801,835.089783 2193.256104,846.294373 
z"/>
<path fill="#FEF9F9" opacity="1.000000" stroke="none" 
	d="
M1767.698975,839.701111 
	C1786.666504,821.580078 1806.979614,806.690369 1830.765747,796.954651 
	C1845.161499,791.062378 1860.015259,788.036926 1875.654907,789.705383 
	C1897.090576,791.992310 1908.269165,806.159607 1905.443237,827.596741 
	C1903.710815,840.739014 1897.623413,851.480286 1887.675293,860.159241 
	C1877.754639,868.814331 1866.250122,874.755798 1854.261108,879.878113 
	C1830.264282,890.130737 1805.027222,896.194092 1779.677368,901.861084 
	C1773.182251,903.313171 1766.581665,904.377075 1760.198975,906.209167 
	C1757.613647,906.951233 1754.504150,908.740234 1753.299316,910.958008 
	C1744.633301,926.909607 1738.631104,943.747498 1738.159912,962.165283 
	C1738.134399,963.163940 1738.150391,964.165405 1738.192139,965.163696 
	C1739.333130,992.466248 1758.082886,1006.948303 1784.887817,1001.096802 
	C1803.785889,996.971252 1818.833008,986.183350 1832.457764,973.063538 
	C1835.336304,970.291748 1837.804565,967.024353 1840.956055,964.637817 
	C1842.352661,963.580322 1844.979370,964.146912 1847.047607,963.976318 
	C1847.060791,966.086426 1847.958252,968.898926 1846.935913,970.186646 
	C1842.182373,976.172729 1837.200562,982.045959 1831.746338,987.394470 
	C1813.977539,1004.818542 1793.349365,1017.248230 1768.381958,1020.941284 
	C1760.555908,1022.098877 1752.336182,1022.474487 1744.520630,1021.468201 
	C1721.269531,1018.474243 1705.100708,1000.314148 1703.721436,976.655823 
	C1702.392212,953.854004 1707.802002,932.346680 1716.878784,911.671509 
	C1728.817505,884.476746 1746.082275,860.967346 1767.698975,839.701111 
M1781.745605,860.791565 
	C1775.514404,869.661804 1768.727051,878.199890 1763.900879,889.944397 
	C1796.743408,883.860840 1828.165039,878.179688 1855.293579,859.746216 
	C1861.466675,855.551636 1866.790771,849.588013 1871.243286,843.513306 
	C1876.723511,836.036377 1878.273804,827.070251 1876.444702,817.783386 
	C1874.797974,809.422546 1870.147095,804.980103 1861.691406,803.910461 
	C1853.937012,802.929626 1846.075928,803.328918 1839.335205,807.343201 
	C1830.527100,812.588562 1821.362305,817.836365 1814.051147,824.854187 
	C1802.799072,835.654846 1792.992065,847.960938 1781.745605,860.791565 
z"/>
<path fill="#FEF9F9" opacity="1.000000" stroke="none" 
	d="
M1671.903320,791.729675 
	C1681.333618,771.067505 1690.494019,751.112427 1699.637451,731.149475 
	C1700.466309,729.339661 1701.409790,727.538147 1701.910156,725.630554 
	C1703.388916,719.993103 1701.935059,717.448608 1696.050659,716.519104 
	C1691.474121,715.796143 1686.684448,716.344238 1682.145508,715.494324 
	C1679.999023,715.092346 1676.959717,713.030701 1676.538696,711.209290 
	C1675.715698,707.648438 1678.649414,706.129272 1682.056274,705.842712 
	C1698.638428,704.447388 1715.204834,702.831238 1731.804321,701.693665 
	C1738.852539,701.210571 1741.009155,704.032898 1739.247192,710.730774 
	C1738.239746,714.560181 1736.538940,718.234131 1734.905029,721.867798 
	C1695.613281,809.251221 1656.276611,896.614563 1617.008911,984.008789 
	C1615.317139,987.773804 1614.204468,991.799011 1612.822021,995.703003 
	C1613.420532,996.264343 1614.019165,996.825684 1614.617676,997.387024 
	C1617.561157,995.740723 1620.958618,994.585510 1623.366455,992.359619 
	C1631.906372,984.464844 1640.103271,976.199280 1648.442139,968.086487 
	C1650.577148,966.009338 1652.623901,963.802490 1654.986084,962.019409 
	C1655.811646,961.396240 1658.008057,961.338379 1658.614868,961.961243 
	C1659.592896,962.965271 1660.296143,964.804260 1660.147461,966.186523 
	C1659.983643,967.709106 1658.873169,969.217834 1657.924316,970.554565 
	C1646.078491,987.242554 1632.622070,1002.469788 1615.143433,1013.380859 
	C1608.496460,1017.530273 1600.888306,1020.672180 1593.295166,1022.643982 
	C1582.815674,1025.365234 1574.746094,1017.414734 1576.598877,1006.681335 
	C1577.546875,1001.190308 1579.619995,995.771729 1581.927856,990.655640 
	C1611.750122,924.546753 1641.706421,858.498352 1671.903320,791.729675 
z"/>
<path fill="#FEFAFA" opacity="1.000000" stroke="none" 
	d="
M1549.962646,964.651917 
	C1536.694946,987.875610 1519.014893,1006.010315 1495.836670,1018.405151 
	C1491.801270,1020.563171 1487.171143,1021.914246 1482.651611,1022.800598 
	C1472.278931,1024.835205 1464.628540,1017.983826 1466.165039,1007.487000 
	C1467.064575,1001.341980 1469.395264,995.262207 1471.924927,989.524475 
	C1484.144409,961.808167 1496.543091,934.169250 1509.076050,906.592834 
	C1535.520752,848.406677 1561.917358,790.197388 1588.740601,732.185852 
	C1594.610718,719.490540 1592.186035,716.367615 1578.611938,715.831238 
	C1575.296875,715.700195 1571.879883,715.820618 1568.725708,714.997498 
	C1567.306641,714.627075 1565.533081,712.219482 1565.537476,710.740967 
	C1565.541870,709.248535 1567.405396,707.610718 1568.743774,706.341919 
	C1569.337769,705.778748 1570.638062,705.908081 1571.626465,705.821411 
	C1587.550171,704.426575 1603.462891,702.874023 1619.404785,701.729980 
	C1628.961792,701.044189 1630.886719,703.665405 1628.047607,712.842896 
	C1626.872925,716.640381 1625.161743,720.286072 1623.524292,723.924194 
	C1584.586182,810.434021 1545.613647,896.928345 1506.704102,983.450989 
	C1504.888672,987.488037 1503.599976,991.761963 1501.890137,996.402771 
	C1507.503418,997.502747 1510.279663,994.674438 1512.750366,992.401245 
	C1521.556763,984.298767 1530.050903,975.856079 1538.633423,967.511597 
	C1540.301758,965.889465 1541.657227,963.897705 1543.477661,962.491821 
	C1545.972656,960.565002 1548.402100,960.626282 1549.962646,964.651917 
z"/>
<path fill="#FEFAFA" opacity="1.000000" stroke="none" 
	d="
M1983.341431,370.964355 
	C1996.925659,367.597412 2007.599243,361.597900 2012.913818,348.623810 
	C2013.400024,347.436768 2013.541016,346.108337 2014.163452,343.499054 
	C2009.991821,343.968842 2006.534668,344.456268 2003.060669,344.732910 
	C1985.617798,346.121826 1973.152588,336.144043 1971.937134,319.880310 
	C1970.579956,301.722595 1980.766846,289.397522 1998.434448,287.821228 
	C2020.251709,285.874725 2035.847290,298.862762 2037.147339,321.147949 
	C2038.591553,345.906189 2022.333618,372.792877 1995.885742,378.900909 
	C1992.355957,379.716125 1988.640015,380.179565 1985.037964,380.047913 
	C1983.043579,379.975037 1981.106689,378.329803 1979.143799,377.393311 
	C1980.310059,375.343323 1981.476440,373.293365 1983.341431,370.964355 
z"/>
<path fill="#E12827" opacity="1.000000" stroke="none" 
	d="
M1453.215332,1437.627686 
	C1434.113647,1438.607178 1415.845703,1440.242188 1397.596436,1440.056763 
	C1377.240967,1439.850220 1366.490356,1429.407715 1363.694702,1409.270386 
	C1362.919312,1403.685059 1362.527588,1398.000732 1362.521118,1392.361328 
	C1362.442993,1324.746460 1362.446411,1257.131592 1362.520630,1189.516724 
	C1362.526123,1184.548706 1362.998779,1179.547974 1363.680420,1174.621338 
	C1364.900513,1165.802490 1370.074341,1160.074707 1378.588501,1157.777344 
	C1383.373047,1156.486206 1388.349731,1155.668213 1393.292114,1155.240845 
	C1415.990601,1153.278076 1438.555542,1154.043091 1460.719116,1159.827759 
	C1505.625366,1171.548218 1534.328613,1199.897339 1545.848145,1244.800659 
	C1555.323608,1281.735596 1554.221313,1318.871704 1543.218872,1355.282227 
	C1529.739990,1399.887817 1499.837402,1427.500610 1453.215332,1437.627686 
z"/>
<path fill="#E12827" opacity="1.000000" stroke="none" 
	d="
M1866.704834,1181.269531 
	C1888.678223,1202.907227 1900.364502,1229.177490 1905.467773,1258.261108 
	C1911.942017,1295.158203 1910.077148,1331.942993 1899.851318,1368.070923 
	C1897.510986,1376.339355 1894.176514,1384.455322 1890.301880,1392.138306 
	C1873.835449,1424.788940 1846.633545,1441.361206 1810.564575,1443.802124 
	C1773.715698,1446.295532 1745.256592,1431.309204 1724.522095,1401.238159 
	C1710.046143,1380.243774 1702.674927,1356.515869 1699.088745,1331.506714 
	C1694.249634,1297.759766 1695.799316,1264.410400 1706.002930,1231.708252 
	C1710.600098,1216.974487 1717.358887,1203.287598 1726.825806,1191.020996 
	C1758.982178,1149.354248 1818.221313,1142.133301 1859.405518,1174.875244 
	C1861.749512,1176.738647 1863.935913,1178.799927 1866.704834,1181.269531 
z"/>
<path fill="#E12827" opacity="1.000000" stroke="none" 
	d="
M631.663513,1311.767212 
	C630.048523,1282.290405 632.432190,1254.270996 642.007812,1227.152954 
	C646.580444,1214.203491 652.766235,1202.099487 661.182495,1191.194824 
	C694.611938,1147.881836 756.321045,1141.820801 797.481812,1177.887207 
	C818.247925,1196.083252 830.683777,1219.446899 837.160461,1245.803955 
	C847.900208,1289.510376 845.473389,1332.950684 831.883850,1375.761230 
	C829.984375,1381.745239 827.237671,1387.525757 824.332825,1393.114502 
	C807.656738,1425.198486 780.642517,1441.396851 745.031006,1443.797363 
	C707.766785,1446.309204 679.065918,1431.063110 658.486023,1400.439941 
	C640.723877,1374.009766 633.572998,1344.128906 631.663513,1311.767212 
z"/>
<path fill="#E12928" opacity="1.000000" stroke="none" 
	d="
M1916.789917,1107.764648 
	C1906.580688,1103.954956 1897.990356,1099.042114 1891.082153,1091.499146 
	C1874.003052,1072.851074 1875.498047,1049.031494 1896.003906,1034.448364 
	C1907.550293,1026.237061 1920.810181,1020.445496 1933.238281,1013.457214 
	C1936.894531,1011.401367 1940.083740,1012.201172 1943.597046,1013.893738 
	C1964.759033,1024.088867 1983.985962,1037.214966 2000.791992,1053.505981 
	C2022.247803,1074.304810 2017.385132,1095.982422 1989.123047,1106.212769 
	C1965.595947,1114.729004 1941.597412,1115.034058 1916.789917,1107.764648 
z"/>
<path fill="#E12A29" opacity="1.000000" stroke="none" 
	d="
M1968.730103,869.254395 
	C1976.658447,847.019470 1989.460815,828.919006 2006.053467,813.586243 
	C2011.592896,808.467346 2018.407227,804.661621 2024.891113,800.664734 
	C2027.354126,799.146545 2030.469238,798.463562 2033.384155,797.937500 
	C2051.332275,794.698853 2061.037598,803.524475 2059.406982,821.757019 
	C2057.743408,840.358887 2051.281006,857.549255 2041.363281,873.083862 
	C2034.434082,883.937439 2026.009155,893.968994 2017.331787,903.532471 
	C2010.040039,911.568970 2000.345703,916.320007 1989.359253,917.669800 
	C1975.685425,919.349792 1967.836304,913.237610 1965.707031,899.595459 
	C1964.130127,889.492554 1965.685547,879.705872 1968.730103,869.254395 
z"/>
<path fill="#E12928" opacity="1.000000" stroke="none" 
	d="
M1423.893799,903.746216 
	C1411.535522,930.175537 1397.136963,954.461182 1377.938599,975.557312 
	C1371.476562,982.658203 1364.301392,989.249268 1356.739258,995.161682 
	C1351.594727,999.183838 1345.496826,1002.424988 1339.328613,1004.618469 
	C1319.056763,1011.827148 1303.120361,1000.856140 1301.909424,979.397095 
	C1301.151123,965.958679 1303.170776,952.780029 1306.620605,939.908569 
	C1317.541992,899.160828 1336.314209,862.332031 1363.637817,830.147034 
	C1370.687378,821.843201 1378.959473,814.382446 1387.540405,807.642578 
	C1393.153076,803.234192 1400.029907,799.865295 1406.868896,797.697876 
	C1425.391113,791.828064 1440.019775,801.061707 1441.885254,820.257141 
	C1442.902344,830.723328 1442.378052,841.576843 1440.833496,852.001526 
	C1438.189453,869.847839 1431.677979,886.660400 1423.893799,903.746216 
z"/>
<path fill="#E22B2A" opacity="1.000000" stroke="none" 
	d="
M2193.719238,845.755859 
	C2204.695801,835.089783 2214.733154,824.396545 2225.875488,815.015930 
	C2234.593750,807.675964 2245.116211,803.296997 2257.056396,803.570618 
	C2271.217529,803.895325 2277.757812,810.629761 2277.150391,824.856689 
	C2276.705322,835.281250 2272.998047,844.753662 2265.115479,851.393433 
	C2257.067383,858.172791 2248.356445,864.673218 2238.931396,869.208008 
	C2217.247314,879.641235 2193.875000,884.971619 2170.178223,888.760742 
	C2168.942627,888.958313 2167.647949,888.786194 2164.702637,888.786194 
	C2172.525391,872.511780 2182.577393,859.202698 2193.719238,845.755859 
z"/>
<path fill="#E22B2A" opacity="1.000000" stroke="none" 
	d="
M1782.158813,860.209961 
	C1792.992065,847.960938 1802.799072,835.654846 1814.051147,824.854187 
	C1821.362305,817.836365 1830.527100,812.588562 1839.335205,807.343201 
	C1846.075928,803.328918 1853.937012,802.929626 1861.691406,803.910461 
	C1870.147095,804.980103 1874.797974,809.422546 1876.444702,817.783386 
	C1878.273804,827.070251 1876.723511,836.036377 1871.243286,843.513306 
	C1866.790771,849.588013 1861.466675,855.551636 1855.293579,859.746216 
	C1828.165039,878.179688 1796.743408,883.860840 1763.900879,889.944397 
	C1768.727051,878.199890 1775.514404,869.661804 1782.158813,860.209961 
z"/>
</svg>